<svg xmlns="http://www.w3.org/2000/svg" viewBox="0 0 410 220"><title>logo</title><path d="M165.24,178.14a89,89,0,1,1,0-136.28,94,94,0,0,0-3.39,132.89Q163.5,176.49,165.24,178.14Z" fill="#2d3436"/><path d="M106,178h-.32A68,68,0,0,1,87,45.33a9,9,0,0,1,5.56,17.12A50,50,0,0,0,106.26,160a9,9,0,0,1-.31,18Zm22.23-114.4A9,9,0,0,1,125.1,63a49.53,49.53,0,0,0-11-2.65,9,9,0,0,1,2.2-17.86,67.65,67.65,0,0,1,15,3.59,9,9,0,0,1-3.08,17.46Z" fill="#81ecec"/><circle cx="230" cy="110" r="85" fill="#f7fbfc" stroke="#2d3436" stroke-width="8"/><path d="M236,162H224V146H178V134h46v-5H186V77h38V72H186V60h38V52h12v8h38V72H236v5h38v52H236Zm0-45h26v-8H236Zm-38,0h26v-8H198Zm38-20h26V89H236Zm-38,0h26V89H198Z" fill="#515e72"/><path d="M229.93,184A74,74,0,1,1,304,110H292a62,62,0,1,0-11.55,36H224V134h76.64l-4.26,8.65A74.22,74.22,0,0,1,229.93,184Z" fill="#e74c3c"/><circle cx="352" cy="46" r="25" fill="#eab543"/><path d="M337,88h30l8,89H329Z" fill="#eab543"/><path d="M336,85h32q10-10,0-10H336q-10,0,0,10m-11,95h54q11,15,0,15H325q-11,0,0-15" fill="#2d3436"/></svg>