<svg xmlns="http://www.w3.org/2000/svg" viewBox="0 0 1350 220"><title>logo+text</title><path d="M165.24,178.14a89,89,0,1,1,0-136.28,94,94,0,0,0-3.39,132.89Q163.5,176.49,165.24,178.14Z" fill="#2d3436"/><path d="M106,178h-.32A68,68,0,0,1,87,45.33a9,9,0,0,1,5.56,17.12A50,50,0,0,0,106.26,160a9,9,0,0,1-.31,18Zm22.23-114.4A9,9,0,0,1,125.1,63a49.53,49.53,0,0,0-11-2.65,9,9,0,0,1,2.2-17.86,67.65,67.65,0,0,1,15,3.59,9,9,0,0,1-3.08,17.46Z" fill="#81ecec"/><circle cx="230" cy="110" r="85" fill="#f7fbfc" stroke="#2d3436" stroke-width="8"/><path d="M236,162H224V146H178V134h46v-5H186V77h38V72H186V60h38V52h12v8h38V72H236v5h38v52H236Zm0-45h26v-8H236Zm-38,0h26v-8H198Zm38-20h26V89H236Zm-38,0h26V89H198Z" fill="#515e72"/><path d="M229.88,183.94A74,74,0,1,1,304,110H292a62,62,0,1,0-11.55,36H224V134h76.64l-4.26,8.65A74.07,74.07,0,0,1,229.88,183.94Z" fill="#e74c3c"/><circle cx="352" cy="46" r="25" fill="#eab543"/><path d="M337,88h30l8,89H329Z" fill="#eab543"/><path d="M336,85h32q10-10,0-10H336q-10,0,0,10m-11,95h54q11,15,0,15H325q-11,0,0-15" fill="#2d3436"/><g style="isolation:isolate"><path d="M417.63,77.72l0-.78a35.06,35.06,0,0,1,4-15.17,31.91,31.91,0,0,1,8.73-10.56q5.22-4,10.15-4a7.34,7.34,0,0,1,5.94,2.6,8.48,8.48,0,0,1,1.85,5.54,12.79,12.79,0,0,1-2.87,7.73A10.59,10.59,0,0,1,442,66.28a3.49,3.49,0,0,1-1.65.48,3,3,0,0,1-1.41-.32,4.36,4.36,0,0,1-1.13-.8,3,3,0,0,1-1-1.88,1.36,1.36,0,0,1,.43-1.16,17.93,17.93,0,0,0,6-6.52,5.88,5.88,0,0,0,.62-2.53c0-1.74-.83-2.6-2.47-2.6q-3.87,0-8,4.21a32.63,32.63,0,0,0-6.45,9.78A29.88,29.88,0,0,0,424.05,76l0,1q0,6,2.55,7.92a3.58,3.58,0,0,0,2.19.67,8.56,8.56,0,0,0,2.41-.32,12.37,12.37,0,0,0,2.25-.89,29.37,29.37,0,0,0,4.68-3.24.85.85,0,0,1,1.42.18A2.8,2.8,0,0,1,440,83a3.79,3.79,0,0,1-.41,2.09,7.7,7.7,0,0,1-1.43,1.3,13,13,0,0,1-2.45,1.39,16.18,16.18,0,0,1-6.64,1.51,14.54,14.54,0,0,1-5.23-.79,9.13,9.13,0,0,1-3.36-2.27Q417.63,83.09,417.63,77.72Z" fill="#34495e"/><path d="M448.78,87.17A7.38,7.38,0,0,1,447,84.45a11.17,11.17,0,0,1-.67-3.91,18.07,18.07,0,0,1,.55-4.57,22.57,22.57,0,0,1,4.19-8.48,19.26,19.26,0,0,1,3.29-3.28,13.23,13.23,0,0,1,8.14-3q5.53,0,7.49,4.86a13.9,13.9,0,0,1,.16,8.51A22.13,22.13,0,0,1,466,83a16.67,16.67,0,0,1-7,5.45,10.84,10.84,0,0,1-4,.81,11.18,11.18,0,0,1-3.51-.51A7.05,7.05,0,0,1,448.78,87.17Zm5.13-13a26.07,26.07,0,0,0-1.27,4.08,17.12,17.12,0,0,0-.45,4,6.78,6.78,0,0,0,.58,2.93,1.86,1.86,0,0,0,1.79,1.06,4.15,4.15,0,0,0,2.43-.85,11.55,11.55,0,0,0,2.32-2.24,21.13,21.13,0,0,0,2.12-3.22,29.9,29.9,0,0,0,1.75-3.81,21.08,21.08,0,0,0,1.58-7.68c0-2-.4-3.23-1.21-3.76a2.36,2.36,0,0,0-1.35-.33,3.69,3.69,0,0,0-2,.79,12.36,12.36,0,0,0-2.26,2.14,22.08,22.08,0,0,0-2.17,3.14A29.61,29.61,0,0,0,453.91,74.15Z" fill="#34495e"/><path d="M494.81,66.28q-1.55,0-5.69,4.51-3.09,3.52-4.48,5.29l-2.42,3.06q-1.56,3-2.44,4.92l-1.45,3.11a7.7,7.7,0,0,1-1,1.63,1.42,1.42,0,0,1-1.12.47,3.75,3.75,0,0,1-1.37-.26,4.19,4.19,0,0,1-1.14-.65,2.47,2.47,0,0,1-1-1.88,4.6,4.6,0,0,1,.59-1.59l1-2.17c.32-.65.7-1.47,1.12-2.47l1.51-3.68q3.17-7.93,3.17-10.24a2.1,2.1,0,0,0-.81-1.82l-.54-.38a.76.76,0,0,1-.26-.66,1.4,1.4,0,0,1,.36-.9,3.5,3.5,0,0,1,.95-.75,5.33,5.33,0,0,1,2.43-.61,5.47,5.47,0,0,1,1.92.26,3.76,3.76,0,0,1,1.21.73,2.7,2.7,0,0,1,1,2,8.08,8.08,0,0,1-.27,2,20.34,20.34,0,0,1-.67,2.1c-.27.71-.55,1.39-.86,2-.71,1.54-1.16,2.49-1.33,2.84s-.22.47-.14.38q4.9-6.36,5.9-7.51a24.93,24.93,0,0,1,3.23-3.28,6.77,6.77,0,0,1,4-1.58,4,4,0,0,1,3,1.18,4.31,4.31,0,0,1,1.13,3.11,11.68,11.68,0,0,1-.86,4c-.57,1.52-1,2.58-1.15,3.19l3.94-5.21,2.21-2.63A11.75,11.75,0,0,1,508,61.9a6.25,6.25,0,0,1,2.45-.69,5.3,5.3,0,0,1,1.88.34,4.49,4.49,0,0,1,1.58,1A4.62,4.62,0,0,1,515.31,66a10.74,10.74,0,0,1-1,4.3c-.65,1.46-1.21,2.67-1.69,3.61s-.95,1.88-1.4,2.83q-2,4.27-2,6.34c0,1,.39,1.45,1.18,1.45a4.43,4.43,0,0,0,2.06-.48,3.57,3.57,0,0,1,1.19-.49.5.5,0,0,1,.56.57,4.71,4.71,0,0,1-2.44,4,5.52,5.52,0,0,1-3,1.1,6.26,6.26,0,0,1-2.19-.32,4.3,4.3,0,0,1-1.51-1,5.4,5.4,0,0,1-1.5-3.9,15,15,0,0,1,.59-4.3,33.17,33.17,0,0,1,1.4-3.8c.53-1.22,1.08-2.35,1.62-3.38s1-1.85,1.25-2.46a7.73,7.73,0,0,0,.86-2.76c0-.7-.37-1-1.1-1-1,0-2.7,1.6-5.21,4.81-1.9,2.49-3.21,4.28-3.95,5.37l-1.85,2.68q-1.56,3-2.39,4.92l-1.37,3.11a7.89,7.89,0,0,1-.89,1.63,1.28,1.28,0,0,1-1.05.47,4.16,4.16,0,0,1-2.39-.78,2.15,2.15,0,0,1-1-1.65,7.14,7.14,0,0,1,.58-2.39c.38-1,.86-2.15,1.43-3.4l3.76-8c1.34-2.95,2-4.83,2-5.62S495.55,66.28,494.81,66.28Zm2.66,7.57s0,0,0,0l0-.06A.21.21,0,0,0,497.47,73.85Z" fill="#34495e"/><path d="M524.19,86.45c0,.27-.42,1.68-1.16,4.24s-1.37,4.59-1.87,6.1c-1.13,3.36-2.06,5.46-2.79,6.28a2.8,2.8,0,0,1-2.15,1,2.54,2.54,0,0,1-2.34-1.5,2,2,0,0,1-.24-1,7.63,7.63,0,0,1,.81-2.27q2.12-4.43,5.66-17.45,1.42-5.16,1.88-7l.86-3.36a45.21,45.21,0,0,0,1-4.53,2.79,2.79,0,0,0-.15-1.69,2.25,2.25,0,0,0-.67-.75c-.25-.17-.48-.32-.7-.44a.65.65,0,0,1-.26-.69,1.53,1.53,0,0,1,.44-.91,3.48,3.48,0,0,1,1-.71,5.6,5.6,0,0,1,2.43-.56,5,5,0,0,1,1.92.29,3.14,3.14,0,0,1,1.15.81,2.56,2.56,0,0,1,.86,2c-.18,1.38-.37,2.56-.59,3.54Q534,61.2,539,61.21q4.59,0,6.15,4.75a13.24,13.24,0,0,1,.54,4.05,16.31,16.31,0,0,1-.73,4.8,21.12,21.12,0,0,1-2,4.55,23,23,0,0,1-2.87,4,23.67,23.67,0,0,1-3.46,3.16,12.7,12.7,0,0,1-7.31,2.79A5.66,5.66,0,0,1,524.19,86.45ZM528.34,75a24.19,24.19,0,0,0-1.58,3.77,11.42,11.42,0,0,0-.61,3.44,4.52,4.52,0,0,0,.68,2.56,2.23,2.23,0,0,0,2,1,5.46,5.46,0,0,0,2.62-.71A11.83,11.83,0,0,0,534,83.15a17.49,17.49,0,0,0,2.28-2.84,21.86,21.86,0,0,0,1.84-3.45,19.23,19.23,0,0,0,1.69-7.55,7.14,7.14,0,0,0-.51-3,1.66,1.66,0,0,0-1.57-1.08,3.91,3.91,0,0,0-2.22.82,16,16,0,0,0-2.41,2.18,27.56,27.56,0,0,0-2.5,3.11A33.32,33.32,0,0,0,528.34,75Z" fill="#34495e"/><path d="M574.74,83.71a.54.54,0,0,1,.61.62A4.66,4.66,0,0,1,573,88.25a6.48,6.48,0,0,1-3.65,1,3.85,3.85,0,0,1-2.63-.81,4.56,4.56,0,0,1-1.64-3.54c0-1.77.74-4.49,2.23-8.14q-4.14,5.58-5.8,7.43a30.26,30.26,0,0,1-2.9,2.86,8.07,8.07,0,0,1-4.86,2.2,4.29,4.29,0,0,1-4.43-2.88,5.75,5.75,0,0,1-.32-2,9.66,9.66,0,0,1,.39-2.55,25.57,25.57,0,0,1,1-2.94c.41-1,.86-2.07,1.34-3.15l1.46-3.22c1.86-4.13,2.55-6.59,2.06-7.36a3.3,3.3,0,0,0-1.21-1,.7.7,0,0,1-.32-.66,1.34,1.34,0,0,1,.39-.9,3.85,3.85,0,0,1,1-.75,6.15,6.15,0,0,1,2.63-.61,5.45,5.45,0,0,1,2,.28,3.21,3.21,0,0,1,1.12.71,2.71,2.71,0,0,1,.88,2,9.15,9.15,0,0,1-.35,2.4c-.23.89-.53,1.85-.91,2.89s-.79,2.11-1.24,3.22q-1.85,4.35-2.49,5.75l-1,2.07a7.82,7.82,0,0,0-.83,2.6,1.76,1.76,0,0,0,.24,1.06,1,1,0,0,0,.88.31,2.69,2.69,0,0,0,1.46-.59,15.39,15.39,0,0,0,1.83-1.58c.66-.67,1.35-1.43,2.06-2.3s1.42-1.77,2.1-2.7a48.61,48.61,0,0,0,3-4.4q5.7-10.08,6.07-10.53a2.31,2.31,0,0,1,1.76-1.15,5.3,5.3,0,0,1,1.57.2,3.49,3.49,0,0,1,1.16.57c.75.56,1,1.11.72,1.67q-6.56,13.67-7.06,17.19c-.09.8-.14,1.36-.14,1.66,0,1.36.42,2,1.24,2a4,4,0,0,0,1.91-.41A2.77,2.77,0,0,1,574.74,83.71Z" fill="#34495e"/><path d="M595.74,82q.78,0,.78,1.05a3.14,3.14,0,0,1-.54,1.72,7.48,7.48,0,0,1-2.9,3,9.11,9.11,0,0,1-5,1.59q-4.32,0-5.48-3.87-1.36-4.59,4.11-19.47c-2.06-.18-3.18-.54-3.36-1.07a1.78,1.78,0,0,1-.08-.53,1.24,1.24,0,0,1,.26-.65,3.44,3.44,0,0,1,.66-.73,3,3,0,0,1,1.9-.78h2.12q2.91-6.8,4.14-7.73A2.15,2.15,0,0,1,593.7,54a3.21,3.21,0,0,1,1.2.19,2.53,2.53,0,0,1,.86.53,2.41,2.41,0,0,1,.86,1.8,3,3,0,0,1-.32,1.24l-2,4.32H595c1.11,0,2,0,2.68,0l1.53,0c.34,0,.77,0,1.28,0s.77.19.77.56c0,2.37-2.8,3.55-8.38,3.55h-.22l-1.82,4.73q-3.09,8.37-3.09,11.73a2.19,2.19,0,0,0,.43,1.46,2,2,0,0,0,1.61.53,5.72,5.72,0,0,0,2.15-.4,9.54,9.54,0,0,0,1.69-.9c.48-.33.9-.64,1.25-.9A1.6,1.6,0,0,1,595.74,82Z" fill="#34495e"/><path d="M600.11,79.6a18.19,18.19,0,0,1,.78-4.47,22.18,22.18,0,0,1,1.8-4.14,24.28,24.28,0,0,1,2.65-3.78,20.61,20.61,0,0,1,3.29-3.13,12.83,12.83,0,0,1,7.76-2.87q4.59,0,6.12,3.78A7.54,7.54,0,0,1,623,68a8.5,8.5,0,0,1-.67,3.25A9.25,9.25,0,0,1,620.56,74a12.92,12.92,0,0,1-2.71,2.19,19,19,0,0,1-3.42,1.64,25.32,25.32,0,0,1-8.17,1.39,5.48,5.48,0,0,0-.13,1.13,7.42,7.42,0,0,0,.16,1.68,4.83,4.83,0,0,0,.65,1.65,3.05,3.05,0,0,0,2.79,1.61,11.37,11.37,0,0,0,6.07-1.82,8.37,8.37,0,0,0,1.7-1.28,1.8,1.8,0,0,1,1.15-.66,1,1,0,0,1,.84.58,2.42,2.42,0,0,1,.36,1.3,4,4,0,0,1-.8,2.47q-3.39,3.39-10.07,3.39a8.64,8.64,0,0,1-6.34-2.36A9.42,9.42,0,0,1,600.11,79.6ZM615.8,64.78q-2.82,0-5.43,3.86a29.3,29.3,0,0,0-3.54,7.9A13.11,13.11,0,0,0,614.62,73q3-2.89,3-5.55C617.65,65.66,617,64.78,615.8,64.78Z" fill="#34495e"/><path d="M625.9,88.36a3.47,3.47,0,0,1-.86-.9,1.9,1.9,0,0,1-.35-.86,2.24,2.24,0,0,1,.15-.89c.11-.35.27-.77.47-1.28q5.48-13.47,5.47-18.1a2.2,2.2,0,0,0-.88-1.82l-.54-.38a.81.81,0,0,1-.26-.66,1.43,1.43,0,0,1,.34-.9,3.44,3.44,0,0,1,.91-.75,5,5,0,0,1,2.38-.61,5.41,5.41,0,0,1,1.91.26,3.68,3.68,0,0,1,1.17.73,2.85,2.85,0,0,1,1,2,9,9,0,0,1-.24,2.17,22.44,22.44,0,0,1-.61,2.17c-.23.7-.46,1.38-.69,2a12.59,12.59,0,0,0-.46,1.41,3.74,3.74,0,0,0-.16,1.18,2.26,2.26,0,0,0,.78-1.1l1-2q3.5-6.28,6.83-8.32a4.46,4.46,0,0,1,2.32-.56,2.76,2.76,0,0,1,2.19.95,3.35,3.35,0,0,1,.87,2.11,6.81,6.81,0,0,1-.16,1.92,5.51,5.51,0,0,1-.61,1.43,2.52,2.52,0,0,1-2.14,1.51,1,1,0,0,1-.65-.25l-.59-.5a2.64,2.64,0,0,0-1.71-.78,3.24,3.24,0,0,0-2,1.07,20,20,0,0,0-2.43,2.77A51.41,51.41,0,0,0,631.51,84l-1.18,3.12a9,9,0,0,1-.81,1.65,1.18,1.18,0,0,1-1,.5,3.87,3.87,0,0,1-1.37-.26A4.88,4.88,0,0,1,625.9,88.36Z" fill="#34495e"/><path d="M665.94,77.75l0-.81a34.69,34.69,0,0,1,4.09-15.17,31.12,31.12,0,0,1,8.75-10.56q5.21-4,10.15-4a7.26,7.26,0,0,1,5.91,2.6,8.39,8.39,0,0,1,1.88,5.54,12.79,12.79,0,0,1-2.87,7.73,10.8,10.8,0,0,1-3.52,3.17,3.66,3.66,0,0,1-1.68.48,3,3,0,0,1-1.41-.32,3.76,3.76,0,0,1-1.1-.8,2.93,2.93,0,0,1-1-1.88,1.36,1.36,0,0,1,.43-1.16,18.19,18.19,0,0,0,6-6.52,6,6,0,0,0,.6-2.53c0-1.74-.83-2.6-2.47-2.6q-3.93,0-8.12,4.43A35.57,35.57,0,0,0,675,65.69a32.1,32.1,0,0,0-2.9,11.68q-.27,5.67,2.68,7.6a4.48,4.48,0,0,0,2.53.67,6,6,0,0,0,2.86-.72,8.8,8.8,0,0,0,2.35-1.83,7.91,7.91,0,0,0,2.15-5,2.69,2.69,0,0,0-1.4-2.71A5.71,5.71,0,0,0,682,74.9a5.16,5.16,0,0,1-1.12-.39c-.3-.15-.38-.44-.23-.86a4,4,0,0,1,.8-1.3,4.56,4.56,0,0,1,3.41-1.72,9.61,9.61,0,0,1,1.86.27,18.07,18.07,0,0,0,3.11.51c.54,0,1,0,1.28,0a8.13,8.13,0,0,0,.95-.15,16.8,16.8,0,0,0,2.07-.59c1.06-.36,1.58-.12,1.58.71a5.65,5.65,0,0,1-1.9,4.23,6.62,6.62,0,0,1-4.73,1.67,7.27,7.27,0,0,1-1.24,4.51A14.35,14.35,0,0,1,680,88.6a11.7,11.7,0,0,1-4,.67,10.69,10.69,0,0,1-4.12-.79,9.1,9.1,0,0,1-3.22-2.27Q665.94,83.15,665.94,77.75Z" fill="#34495e"/><path d="M718.74,81.86c0,1.64.58,2.47,1.74,2.47a4.66,4.66,0,0,0,2-.38,3.24,3.24,0,0,1,1.06-.37c.38,0,.57.19.57.59a4.78,4.78,0,0,1-2.42,4,5.67,5.67,0,0,1-5.21.86,4.39,4.39,0,0,1-2.58-2.66,5.32,5.32,0,0,1-.4-1.91,17.3,17.3,0,0,1,.27-3q-2.5,5.1-6.21,7a6.82,6.82,0,0,1-3.14.75,5.8,5.8,0,0,1-2.89-.69,6.33,6.33,0,0,1-2.08-1.89,10.12,10.12,0,0,1-1.58-6.34A19.94,19.94,0,0,1,700.69,71a22,22,0,0,1,6.18-7,12,12,0,0,1,7-2.76,6,6,0,0,1,5.23,3q1.86-3,3.28-3a3.9,3.9,0,0,1,2.31.56c1,.71,1.33,1.34,1.05,1.88q-6.75,13.8-6.93,17.19A8.3,8.3,0,0,0,718.74,81.86Zm-14.91.1c0,2.15.69,3.23,2.07,3.23,1.06,0,2.35-.9,3.89-2.69a36.86,36.86,0,0,0,6-10.63,38.85,38.85,0,0,0,1.4-4.19A3.14,3.14,0,0,0,715.65,65a2.79,2.79,0,0,0-1.44-.29,4.83,4.83,0,0,0-2.23.69,11.18,11.18,0,0,0-2.47,1.91,16.57,16.57,0,0,0-2.23,2.86,22.74,22.74,0,0,0-1.81,3.59A22.17,22.17,0,0,0,703.83,82Z" fill="#34495e"/><path d="M748,66.28q-1.54,0-5.69,4.51-3.09,3.52-4.48,5.29l-2.42,3.06q-1.56,3-2.44,4.92l-1.46,3.11a7.35,7.35,0,0,1-1,1.63,1.42,1.42,0,0,1-1.12.47,3.75,3.75,0,0,1-1.37-.26,4.19,4.19,0,0,1-1.14-.65,2.47,2.47,0,0,1-1-1.88,4.6,4.6,0,0,1,.59-1.59l1-2.17c.32-.65.69-1.47,1.12-2.47l1.51-3.68q3.17-7.93,3.17-10.24a2.1,2.1,0,0,0-.81-1.82l-.54-.38a.76.76,0,0,1-.26-.66,1.4,1.4,0,0,1,.36-.9,3.5,3.5,0,0,1,.95-.75,5.33,5.33,0,0,1,2.43-.61,5.47,5.47,0,0,1,1.92.26,3.76,3.76,0,0,1,1.21.73,2.7,2.7,0,0,1,1,2,8.08,8.08,0,0,1-.27,2,20.34,20.34,0,0,1-.67,2.1c-.27.71-.55,1.39-.86,2-.71,1.54-1.16,2.49-1.33,2.84s-.22.47-.14.38q4.9-6.36,5.9-7.51a24.93,24.93,0,0,1,3.23-3.28,6.77,6.77,0,0,1,4-1.58,4,4,0,0,1,3,1.18,4.31,4.31,0,0,1,1.13,3.11,11.68,11.68,0,0,1-.86,4c-.57,1.52-1,2.58-1.15,3.19l3.94-5.21,2.21-2.63a11.75,11.75,0,0,1,3.49-2.93,6.25,6.25,0,0,1,2.45-.69,5.3,5.3,0,0,1,1.88.34,4.49,4.49,0,0,1,1.58,1A4.62,4.62,0,0,1,768.53,66a10.74,10.74,0,0,1-1,4.3c-.65,1.46-1.21,2.67-1.69,3.61s-1,1.88-1.4,2.83q-2,4.27-2,6.34c0,1,.39,1.45,1.18,1.45a4.43,4.43,0,0,0,2.06-.48,3.57,3.57,0,0,1,1.19-.49.5.5,0,0,1,.56.57,4.71,4.71,0,0,1-2.44,4,5.52,5.52,0,0,1-3,1.1,6.26,6.26,0,0,1-2.19-.32,4.3,4.3,0,0,1-1.51-1,5.4,5.4,0,0,1-1.5-3.9,15,15,0,0,1,.59-4.3,33.17,33.17,0,0,1,1.4-3.8c.53-1.22,1.08-2.35,1.62-3.38s1-1.85,1.25-2.46a7.73,7.73,0,0,0,.86-2.76c0-.7-.37-1-1.1-1-1,0-2.7,1.6-5.21,4.81-1.9,2.49-3.21,4.28-3.95,5.37l-1.85,2.68q-1.56,3-2.39,4.92l-1.37,3.11a7.89,7.89,0,0,1-.89,1.63,1.27,1.27,0,0,1-1,.47,4.16,4.16,0,0,1-2.4-.78,2.15,2.15,0,0,1-1-1.65,7.33,7.33,0,0,1,.57-2.39c.39-1,.87-2.15,1.44-3.4l3.76-8c1.34-2.95,2-4.83,2-5.62S748.77,66.28,748,66.28Zm2.66,7.57s0,0,0,0l0-.06A.21.21,0,0,0,750.69,73.85Z" fill="#34495e"/><path d="M772.88,79.6a17.73,17.73,0,0,1,.77-4.47,22.18,22.18,0,0,1,1.8-4.14,25,25,0,0,1,2.65-3.78,20.61,20.61,0,0,1,3.29-3.13,12.85,12.85,0,0,1,7.76-2.87q4.59,0,6.12,3.78a7.54,7.54,0,0,1,.51,3.05,8.32,8.32,0,0,1-.67,3.25A9.42,9.42,0,0,1,793.33,74a13,13,0,0,1-2.72,2.19,18.64,18.64,0,0,1-3.42,1.64A25.31,25.31,0,0,1,779,79.22a4.76,4.76,0,0,0-.14,1.13,7.42,7.42,0,0,0,.16,1.68,4.83,4.83,0,0,0,.65,1.65,3.05,3.05,0,0,0,2.79,1.61,11.37,11.37,0,0,0,6.07-1.82,8.1,8.1,0,0,0,1.7-1.28,1.8,1.8,0,0,1,1.15-.66,1,1,0,0,1,.84.58,2.43,2.43,0,0,1,.37,1.3,3.9,3.9,0,0,1-.81,2.47q-3.39,3.39-10.07,3.39a8.64,8.64,0,0,1-6.34-2.36A9.38,9.38,0,0,1,772.88,79.6Zm15.68-14.82q-2.82,0-5.43,3.86a29.61,29.61,0,0,0-3.54,7.9A13.08,13.08,0,0,0,787.38,73q3-2.89,3-5.55C790.41,65.66,789.79,64.78,788.56,64.78Z" fill="#34495e"/><path d="M797.26,84.27a3.36,3.36,0,0,1,.36-1.54,4.44,4.44,0,0,1,.9-1.2,3.48,3.48,0,0,1,2.37-1,1,1,0,0,1,1.07,1.1,4.15,4.15,0,0,0,1.85,3.89,2.69,2.69,0,0,0,1.4.4,4.1,4.1,0,0,0,1.24-.16,2.62,2.62,0,0,0,.94-.51,2.31,2.31,0,0,0,1-1.85,4.1,4.1,0,0,0-.48-2,17.35,17.35,0,0,0-1.21-1.9l-1.53-2.15q-3.23-4.29-3.22-7.92A7.42,7.42,0,0,1,804.46,64a10.34,10.34,0,0,1,7.44-2.76,9.06,9.06,0,0,1,6.2,2,4.68,4.68,0,0,1,1.83,3.62,4.07,4.07,0,0,1-1.61,3.38,3.5,3.5,0,0,1-2.9.84,1.52,1.52,0,0,1-1-.66,1.32,1.32,0,0,1-.13-1.2,4.59,4.59,0,0,0,.21-1.39,3.36,3.36,0,0,0-.27-1.35,3.12,3.12,0,0,0-.72-1,2.89,2.89,0,0,0-2-.89,5.41,5.41,0,0,0-1.7.23,3.5,3.5,0,0,0-1.18.66,3.08,3.08,0,0,0-1,2.37,5.66,5.66,0,0,0,.48,2.43,13.92,13.92,0,0,0,1.2,2c.47.69,1,1.37,1.54,2.07a19.75,19.75,0,0,1,1.53,2.21,9.31,9.31,0,0,1,1.7,4.76,6.43,6.43,0,0,1-.86,3.44A8.69,8.69,0,0,1,811,87.07a10.73,10.73,0,0,1-6.56,2.17,8.31,8.31,0,0,1-5.47-1.66A4.21,4.21,0,0,1,797.26,84.27Z" fill="#34495e"/><path d="M859.46,81.86c0,1.64.58,2.47,1.74,2.47a4.63,4.63,0,0,0,2-.38,3.32,3.32,0,0,1,1.06-.37c.38,0,.57.19.57.59a4.78,4.78,0,0,1-2.42,4,5.67,5.67,0,0,1-5.21.86,4.39,4.39,0,0,1-2.58-2.66,5.54,5.54,0,0,1-.4-1.91,17.3,17.3,0,0,1,.27-3q-2.49,5.1-6.2,7a6.89,6.89,0,0,1-3.15.75,5.74,5.74,0,0,1-2.88-.69,6.14,6.14,0,0,1-2.08-1.89,10.06,10.06,0,0,1-1.59-6.34A19.94,19.94,0,0,1,841.41,71a22,22,0,0,1,6.18-7,12,12,0,0,1,7-2.76,6,6,0,0,1,5.24,3q1.85-3,3.27-3a3.9,3.9,0,0,1,2.31.56c1,.71,1.34,1.34,1.05,1.88q-6.74,13.8-6.93,17.19C859.48,81.16,859.46,81.5,859.46,81.86Zm-14.91.1c0,2.15.69,3.23,2.07,3.23q1.59,0,3.89-2.69a36.63,36.63,0,0,0,6-10.63,38.85,38.85,0,0,0,1.4-4.19A3.14,3.14,0,0,0,856.37,65a2.77,2.77,0,0,0-1.44-.29,4.86,4.86,0,0,0-2.23.69,11.18,11.18,0,0,0-2.47,1.91A17.08,17.08,0,0,0,848,70.16a22.74,22.74,0,0,0-1.81,3.59A22.17,22.17,0,0,0,844.55,82Z" fill="#34495e"/><path d="M887.87,66.28c-.55,0-1.34.53-2.36,1.6s-1.91,2-2.66,2.91l-2.28,2.74-4.41,5.61q-1.56,3-2.44,4.92l-1.45,3.11a8.21,8.21,0,0,1-1,1.63,1.46,1.46,0,0,1-1.13.47,3.75,3.75,0,0,1-1.37-.26,4.19,4.19,0,0,1-1.14-.65,2.47,2.47,0,0,1-1-1.88,4.84,4.84,0,0,1,.59-1.59l1-2.17c.32-.65.7-1.47,1.13-2.47l1.5-3.68Q874,68.64,874,66.33a2.1,2.1,0,0,0-.81-1.82l-.53-.38a.74.74,0,0,1-.27-.66,1.4,1.4,0,0,1,.36-.9,3.5,3.5,0,0,1,1-.75,5.83,5.83,0,0,1,4.33-.35,3.29,3.29,0,0,1,1.13.73,2.72,2.72,0,0,1,1,2,8.53,8.53,0,0,1-.26,2,20,20,0,0,1-.64,2.1c-.26.71-.53,1.4-.82,2.08s-.55,1.27-.78,1.77l-.53,1.16c-.15.28-.18.37-.11.26,2-2.75,3.29-4.52,3.92-5.31L882.85,66a18,18,0,0,1,3.25-3.19,7.55,7.55,0,0,1,3.76-1.61,6.78,6.78,0,0,1,2.31.34,5.16,5.16,0,0,1,1.64,1A4.55,4.55,0,0,1,895.28,66a11.54,11.54,0,0,1-1,4.43q-1,2.31-1.68,3.75c-.48,1-.93,1.93-1.36,2.91-1.34,3-2,5.16-2,6.53,0,.6.48.91,1.45.91a4.39,4.39,0,0,0,2-.48,3.67,3.67,0,0,1,1.2-.49.5.5,0,0,1,.56.57,4.71,4.71,0,0,1-2.44,4,5.55,5.55,0,0,1-3,1.1,7.3,7.3,0,0,1-2.27-.3,4.26,4.26,0,0,1-1.6-.94,5.08,5.08,0,0,1-1.58-4,21,21,0,0,1,2-7.79q1.42-3.19,2-4.38l.92-1.9a6.87,6.87,0,0,0,.83-2.72C889.35,66.61,888.86,66.28,887.87,66.28Z" fill="#34495e"/><path d="M926.19,83.58c.38,0,.57.19.57.59a4.79,4.79,0,0,1-2.39,4,5.28,5.28,0,0,1-3,1.13,6.49,6.49,0,0,1-2.24-.32,4.26,4.26,0,0,1-1.5-1,6.22,6.22,0,0,1-1.51-4.44,11.12,11.12,0,0,1,.22-1.79,24.13,24.13,0,0,1-3.73,4.72q-3.15,2.85-6.15,2.85-4.76,0-6.24-4.3a12.75,12.75,0,0,1-.53-4,17.05,17.05,0,0,1,.72-4.84,22.12,22.12,0,0,1,2-4.64,24.67,24.67,0,0,1,2.9-4.1,24.23,24.23,0,0,1,3.47-3.29q3.93-2.92,7.09-2.92a6,6,0,0,1,5.08,2.57q4.67-16,7-18.88a2.8,2.8,0,0,1,2.09-1.18,3.53,3.53,0,0,1,2.77,1.05,1.1,1.1,0,0,1,.29.7,3.9,3.9,0,0,1-.43,1.29q-.42.93-1.26,3Q929,56.11,928.07,59q-2.46,7.48-3.33,10.31l-1.47,5q-1.9,6.63-1.91,8.43t1.32,1.8a4.91,4.91,0,0,0,1.93-.32l1-.48A1.14,1.14,0,0,1,926.19,83.58Zm-18.45,1.66q2.78,0,6.34-5.4a35.71,35.71,0,0,0,5.21-12.16A3.14,3.14,0,0,0,917.76,65a2.83,2.83,0,0,0-1.46-.29,4.86,4.86,0,0,0-2.29.71,11.16,11.16,0,0,0-2.52,1.92,17.39,17.39,0,0,0-2.28,2.83,21.86,21.86,0,0,0-1.84,3.45,19.79,19.79,0,0,0-1.69,7.8C905.68,84,906.37,85.24,907.74,85.24Z" fill="#34495e"/><path d="M944.75,86.53q4.65-3.41,9.37-17.56a97.28,97.28,0,0,0,3.82-14.88,20.51,20.51,0,0,0,.29-2.85,4.55,4.55,0,0,0-2,.59l-2,1.16c-.56.3-1.3.06-2.22-.73s-1.34-1.45-1.26-2a1.89,1.89,0,0,1,.91-1.34,8.52,8.52,0,0,1,1.84-.9,11.51,11.51,0,0,1,3.69-.78,13.72,13.72,0,0,1,2.64.23,7.07,7.07,0,0,1,2.08.76,4,4,0,0,1,2.2,3.55q.11,4-2.71,13.59-4.46,15.16-10.48,21.32A8.76,8.76,0,0,1,947.46,89a2.59,2.59,0,0,1-1,.19,2.19,2.19,0,0,1-.9-.18,2.11,2.11,0,0,1-.67-.44,1.53,1.53,0,0,1-.56-1.13A1.05,1.05,0,0,1,944.75,86.53Z" fill="#34495e"/><path d="M984.28,66.28c-.55,0-1.34.53-2.36,1.6s-1.91,2-2.66,2.91L977,73.53l-4.41,5.61c-1,2-1.85,3.61-2.44,4.92l-1.45,3.11a7.75,7.75,0,0,1-1,1.63,1.44,1.44,0,0,1-1.13.47A3.79,3.79,0,0,1,965.2,89a4.19,4.19,0,0,1-1.14-.65,2.47,2.47,0,0,1-1-1.88,4.84,4.84,0,0,1,.59-1.59l1-2.17c.32-.65.7-1.47,1.13-2.47l1.5-3.68q3.18-7.93,3.17-10.24a2.12,2.12,0,0,0-.8-1.82l-.54-.38a.74.74,0,0,1-.27-.66,1.4,1.4,0,0,1,.36-.9,3.56,3.56,0,0,1,1-.75,5.8,5.8,0,0,1,4.32-.35,3.29,3.29,0,0,1,1.13.73,2.72,2.72,0,0,1,1,2,8.52,8.52,0,0,1-.25,2,20.13,20.13,0,0,1-.65,2.1c-.26.71-.53,1.4-.82,2.08s-.54,1.27-.78,1.77l-.53,1.16c-.15.28-.18.37-.11.26,2-2.75,3.29-4.52,3.92-5.31L979.26,66a18,18,0,0,1,3.25-3.19,7.55,7.55,0,0,1,3.76-1.61,6.78,6.78,0,0,1,2.31.34,5.05,5.05,0,0,1,1.64,1A4.55,4.55,0,0,1,991.7,66a11.57,11.57,0,0,1-1,4.43q-1,2.31-1.68,3.75c-.47,1-.93,1.93-1.36,2.91-1.34,3-2,5.16-2,6.53,0,.6.48.91,1.45.91a4.36,4.36,0,0,0,2-.48,3.67,3.67,0,0,1,1.2-.49.5.5,0,0,1,.56.57,4.71,4.71,0,0,1-2.44,4,5.55,5.55,0,0,1-3,1.1,7.3,7.3,0,0,1-2.27-.3,4.26,4.26,0,0,1-1.6-.94,5.08,5.08,0,0,1-1.58-4,21,21,0,0,1,2-7.79q1.43-3.19,2-4.38l.92-1.9a6.87,6.87,0,0,0,.83-2.72C985.76,66.61,985.27,66.28,984.28,66.28Z" fill="#34495e"/><path d="M1011.41,82c.52,0,.77.35.77,1.05a3.12,3.12,0,0,1-.53,1.72,7.48,7.48,0,0,1-2.9,3,9.14,9.14,0,0,1-5,1.59q-4.32,0-5.48-3.87-1.37-4.59,4.11-19.47c-2.06-.18-3.18-.54-3.36-1.07a1.78,1.78,0,0,1-.08-.53,1.24,1.24,0,0,1,.26-.65,3.44,3.44,0,0,1,.66-.73,3,3,0,0,1,1.9-.78h2.12q2.91-6.8,4.14-7.73a2.15,2.15,0,0,1,1.32-.43,3.21,3.21,0,0,1,1.2.19,2.53,2.53,0,0,1,.86.53,2.41,2.41,0,0,1,.86,1.8,3.12,3.12,0,0,1-.32,1.24l-2,4.32h.65c1.11,0,2,0,2.68,0l1.53,0c.34,0,.77,0,1.28,0s.76.19.76.56q0,3.56-8.37,3.55h-.22l-1.83,4.73q-3.08,8.37-3.08,11.73a2.19,2.19,0,0,0,.43,1.46,2,2,0,0,0,1.61.53,5.72,5.72,0,0,0,2.15-.4,9.9,9.9,0,0,0,1.69-.9c.48-.33.9-.64,1.25-.9A1.6,1.6,0,0,1,1011.41,82Z" fill="#34495e"/><path d="M1015.78,79.6a18.19,18.19,0,0,1,.78-4.47,22.18,22.18,0,0,1,1.8-4.14,24.28,24.28,0,0,1,2.65-3.78,20.61,20.61,0,0,1,3.29-3.13,12.83,12.83,0,0,1,7.76-2.87q4.59,0,6.12,3.78a7.54,7.54,0,0,1,.51,3.05,8.5,8.5,0,0,1-.67,3.25,9.25,9.25,0,0,1-1.79,2.71,12.92,12.92,0,0,1-2.71,2.19,19.29,19.29,0,0,1-3.42,1.64,25.37,25.37,0,0,1-8.17,1.39,5.48,5.48,0,0,0-.13,1.13A7.42,7.42,0,0,0,1022,82a4.83,4.83,0,0,0,.65,1.65,3.05,3.05,0,0,0,2.79,1.61,11.37,11.37,0,0,0,6.07-1.82,8.37,8.37,0,0,0,1.7-1.28,1.81,1.81,0,0,1,1.14-.66,1,1,0,0,1,.85.58,2.42,2.42,0,0,1,.36,1.3,4,4,0,0,1-.8,2.47q-3.39,3.39-10.07,3.39a8.63,8.63,0,0,1-6.34-2.36A9.42,9.42,0,0,1,1015.78,79.6Zm15.69-14.82q-2.82,0-5.43,3.86a29.3,29.3,0,0,0-3.54,7.9,13.11,13.11,0,0,0,7.79-3.55q3-2.89,3-5.55C1033.32,65.66,1032.7,64.78,1031.47,64.78Z" fill="#34495e"/><path d="M1042.77,87.93a5.25,5.25,0,0,1-1.08-1.79,7,7,0,0,1-.42-2.52,15.54,15.54,0,0,1,.66-3.86c.44-1.61,1-3.44,1.68-5.5l2.25-6.69q4.82-14,5.56-21.59c.16-1.51.9-2.26,2.2-2.26a3.36,3.36,0,0,1,2,.59,3.19,3.19,0,0,1,1.51,2.63,21.44,21.44,0,0,1-.51,3.54c-.31,1.38-.7,2.9-1.18,4.53s-1,3.37-1.67,5.2l-3.71,10.9q-3.19,9.3-3.19,12c0,1,.39,1.45,1.18,1.45a4.36,4.36,0,0,0,2.05-.48,3.67,3.67,0,0,1,1.2-.49.5.5,0,0,1,.56.57,4.71,4.71,0,0,1-2.44,4,5.52,5.52,0,0,1-3,1.1,6.26,6.26,0,0,1-2.19-.32A4.3,4.3,0,0,1,1042.77,87.93Z" fill="#34495e"/><path d="M1058.13,87.93a5.25,5.25,0,0,1-1.08-1.79,7,7,0,0,1-.42-2.52,15.54,15.54,0,0,1,.66-3.86q.66-2.42,1.68-5.5l2.25-6.69q4.82-14,5.56-21.59c.16-1.51.9-2.26,2.2-2.26a3.41,3.41,0,0,1,2,.59,3.21,3.21,0,0,1,1.5,2.63,21.44,21.44,0,0,1-.51,3.54c-.31,1.38-.7,2.9-1.18,4.53s-1,3.37-1.67,5.2l-3.7,10.9q-3.21,9.3-3.2,12c0,1,.39,1.45,1.18,1.45a4.43,4.43,0,0,0,2.06-.48,3.57,3.57,0,0,1,1.19-.49.5.5,0,0,1,.57.57,4.72,4.72,0,0,1-2.45,4,5.52,5.52,0,0,1-3,1.1,6.26,6.26,0,0,1-2.19-.32A4.3,4.3,0,0,1,1058.13,87.93Z" fill="#34495e"/><path d="M1081.18,84c.46,0,.7.3.7.91a3.89,3.89,0,0,1-1.11,2.5,5.4,5.4,0,0,1-4.32,1.88,4.26,4.26,0,0,1-4.27-2.53,4.8,4.8,0,0,1-.43-2.14,10.44,10.44,0,0,1,.44-2.81c.3-1,.67-2.11,1.1-3.25s.92-2.29,1.44-3.45l1.42-3.38a17.65,17.65,0,0,0,1.56-5,3.31,3.31,0,0,0-.25-1.6,2.31,2.31,0,0,0-.55-.6l-.54-.38a.74.74,0,0,1-.27-.66,1.4,1.4,0,0,1,.36-.9,3.56,3.56,0,0,1,1-.75,6.11,6.11,0,0,1,2.82-.61c2.63,0,3.94.68,3.94,2.06a14.94,14.94,0,0,1-1.26,5.52q-1.26,3.1-2.15,5l-1.61,3.71a17.44,17.44,0,0,0-1.77,5.88,1,1,0,0,0,1.18,1.18,4,4,0,0,0,1.75-.3A2.34,2.34,0,0,1,1081.18,84Zm5.5-29.07a4.91,4.91,0,0,1-1.34,1,4.44,4.44,0,0,1-1.59.48,2.92,2.92,0,0,1-1.57-.25,3.83,3.83,0,0,1-1.27-1,4.16,4.16,0,0,1-1.16-2.71,3.75,3.75,0,0,1,.45-2.05,3.6,3.6,0,0,1,1.11-1.12,4.57,4.57,0,0,1,2.43-.83,7.39,7.39,0,0,1,1.77.16,3.66,3.66,0,0,1,1.17.54,2.57,2.57,0,0,1,1.32,2.16,5.23,5.23,0,0,1-.37,2.12A4.94,4.94,0,0,1,1086.68,54.91Z" fill="#34495e"/><path d="M1103.66,83.15q-4.1,6.12-9.05,6.12c-3,0-5-1.6-6-4.78a13,13,0,0,1-.53-4,17.27,17.27,0,0,1,.68-4.79,22,22,0,0,1,1.87-4.56,21.52,21.52,0,0,1,2.78-4,20.44,20.44,0,0,1,3.42-3.13,12.71,12.71,0,0,1,7.57-2.81,5.51,5.51,0,0,1,5.37,3.51,7.79,7.79,0,0,0,.6-.71,4.71,4.71,0,0,1,.59-.68,1.88,1.88,0,0,1,1.22-.7,3.44,3.44,0,0,1,1.1.19,4.83,4.83,0,0,1,1.11.51c.88.52,1.21,1,1,1.45a54,54,0,0,0-2.47,6.28l-4,12.68q-4.7,14.42-11.92,18.63a8.92,8.92,0,0,1-3.3,1.31,6.06,6.06,0,0,1-2,0,4,4,0,0,1-1.1-.46c-.7-.44-1-.85-1-1.2,0-.63.42-1,1.25-1.16a7.88,7.88,0,0,0,2.62-1,14.64,14.64,0,0,0,2.6-1.92Q1101.05,93.25,1103.66,83.15Zm-8.05-9.32a27,27,0,0,0-1.11,4,17.74,17.74,0,0,0-.41,3.31,15.81,15.81,0,0,0,.09,2,3.77,3.77,0,0,0,.32,1.19,1.7,1.7,0,0,0,1.58,1.13,3.52,3.52,0,0,0,2.07-.74,13.6,13.6,0,0,0,2.15-2,25.83,25.83,0,0,0,2.25-3,38.2,38.2,0,0,0,2.15-3.76,36.76,36.76,0,0,0,3.17-8.51,3,3,0,0,0-.91-1.53,4.3,4.3,0,0,0-2.77-1.48,4.67,4.67,0,0,0-2.47.77,10.16,10.16,0,0,0-2.35,2.07,19.37,19.37,0,0,0-2.08,3A27.24,27.24,0,0,0,1095.61,73.83Z" fill="#34495e"/><path d="M1117.16,79.6a17.3,17.3,0,0,1,.78-4.47,22.18,22.18,0,0,1,1.8-4.14,24.28,24.28,0,0,1,2.65-3.78,20.19,20.19,0,0,1,3.29-3.13,12.83,12.83,0,0,1,7.76-2.87q4.59,0,6.12,3.78a7.54,7.54,0,0,1,.51,3.05,8.5,8.5,0,0,1-.67,3.25,9.46,9.46,0,0,1-1.79,2.71,12.92,12.92,0,0,1-2.71,2.19,19.29,19.29,0,0,1-3.42,1.64,25.42,25.42,0,0,1-8.17,1.39,5.48,5.48,0,0,0-.13,1.13,6.88,6.88,0,0,0,.16,1.68,4.82,4.82,0,0,0,.64,1.65,3.08,3.08,0,0,0,2.8,1.61,11.39,11.39,0,0,0,6.07-1.82,8.66,8.66,0,0,0,1.7-1.28,1.81,1.81,0,0,1,1.14-.66,1,1,0,0,1,.85.58,2.42,2.42,0,0,1,.36,1.3,4,4,0,0,1-.8,2.47q-3.39,3.39-10.07,3.39a8.63,8.63,0,0,1-6.34-2.36A9.42,9.42,0,0,1,1117.16,79.6Zm15.69-14.82q-2.82,0-5.43,3.86a29,29,0,0,0-3.54,7.9,13.11,13.11,0,0,0,7.79-3.55q3-2.89,3-5.55C1134.7,65.66,1134.08,64.78,1132.85,64.78Z" fill="#34495e"/><path d="M1162.2,66.28c-.56,0-1.34.53-2.36,1.6s-1.91,2-2.66,2.91l-2.28,2.74-4.41,5.61q-1.56,3-2.44,4.92l-1.45,3.11a8.21,8.21,0,0,1-1,1.63,1.46,1.46,0,0,1-1.13.47,3.75,3.75,0,0,1-1.37-.26,4.19,4.19,0,0,1-1.14-.65,2.47,2.47,0,0,1-1-1.88,4.6,4.6,0,0,1,.59-1.59l1-2.17c.32-.65.7-1.47,1.13-2.47l1.5-3.68q3.16-7.93,3.17-10.24a2.1,2.1,0,0,0-.81-1.82l-.53-.38a.74.74,0,0,1-.27-.66,1.4,1.4,0,0,1,.36-.9,3.5,3.5,0,0,1,1-.75,5.83,5.83,0,0,1,4.33-.35,3.39,3.39,0,0,1,1.13.73,2.72,2.72,0,0,1,1,2,8.53,8.53,0,0,1-.26,2,20,20,0,0,1-.64,2.1c-.26.71-.53,1.4-.82,2.08s-.55,1.27-.78,1.77l-.54,1.16c-.14.28-.17.37-.1.26q3-4.12,3.92-5.31l1.88-2.26a18,18,0,0,1,3.25-3.19,7.52,7.52,0,0,1,3.76-1.61,6.78,6.78,0,0,1,2.31.34,5,5,0,0,1,1.63,1,4.52,4.52,0,0,1,1.48,3.49,11.54,11.54,0,0,1-1,4.43q-1,2.31-1.68,3.75c-.48,1-.93,1.93-1.36,2.91-1.34,3-2,5.16-2,6.53,0,.6.48.91,1.45.91a4.39,4.39,0,0,0,2-.48,3.67,3.67,0,0,1,1.2-.49.5.5,0,0,1,.56.57,4.73,4.73,0,0,1-2.44,4,5.58,5.58,0,0,1-3,1.1,7.3,7.3,0,0,1-2.27-.3,4.26,4.26,0,0,1-1.6-.94,5,5,0,0,1-1.58-4,21,21,0,0,1,2-7.79q1.42-3.19,2-4.38l.91-1.9a6.76,6.76,0,0,0,.84-2.72C1163.68,66.61,1163.18,66.28,1162.2,66.28Z" fill="#34495e"/><path d="M1173.59,79.73a17.81,17.81,0,0,1,.73-4.65,22.18,22.18,0,0,1,1.83-4.4,21.24,21.24,0,0,1,2.71-3.81,19.44,19.44,0,0,1,3.43-3,14.14,14.14,0,0,1,8.13-2.65q4.41,0,6,3.51a6.58,6.58,0,0,1,.53,2.86,9.08,9.08,0,0,1-.53,2.93,10.4,10.4,0,0,1-1.2,2.38c-1.1,1.57-2.2,2.36-3.31,2.36a3.45,3.45,0,0,1-2.74-1,2.16,2.16,0,0,1-.48-2.07,1.08,1.08,0,0,1,.48-.63,8.38,8.38,0,0,0,1-.9,6.26,6.26,0,0,0,1.83-4.27c0-1.11-.65-1.66-2-1.66s-3.08.84-4.73,2.52a20.4,20.4,0,0,0-5.07,9.43q-1.29,5,.48,7.3a3.41,3.41,0,0,0,2.85,1.34,9.54,9.54,0,0,0,5.85-2.14,8.31,8.31,0,0,0,1.4-1.37c.35-.47.69-.7,1-.7a.94.94,0,0,1,.77.44,2,2,0,0,1,.3,1.14,4.58,4.58,0,0,1-1.42,3.12,12.27,12.27,0,0,1-8.78,3.49,8.92,8.92,0,0,1-6.77-2.5C1174.27,85.12,1173.51,82.78,1173.59,79.73Z" fill="#34495e"/><path d="M1199.56,79.6a17.73,17.73,0,0,1,.77-4.47,22.18,22.18,0,0,1,1.8-4.14,25,25,0,0,1,2.65-3.78,20.61,20.61,0,0,1,3.29-3.13,12.85,12.85,0,0,1,7.76-2.87q4.59,0,6.12,3.78a7.54,7.54,0,0,1,.51,3.05,8.32,8.32,0,0,1-.67,3.25A9.42,9.42,0,0,1,1220,74a13,13,0,0,1-2.72,2.19,18.64,18.64,0,0,1-3.42,1.64,25.31,25.31,0,0,1-8.16,1.39,4.76,4.76,0,0,0-.14,1.13,7.42,7.42,0,0,0,.16,1.68,4.83,4.83,0,0,0,.65,1.65,3.05,3.05,0,0,0,2.79,1.61,11.37,11.37,0,0,0,6.07-1.82,8.1,8.1,0,0,0,1.7-1.28,1.8,1.8,0,0,1,1.15-.66,1,1,0,0,1,.84.58,2.42,2.42,0,0,1,.36,1.3,3.89,3.89,0,0,1-.8,2.47q-3.39,3.39-10.07,3.39a8.64,8.64,0,0,1-6.34-2.36A9.38,9.38,0,0,1,1199.56,79.6Zm15.68-14.82q-2.82,0-5.43,3.86a29.61,29.61,0,0,0-3.54,7.9,13.08,13.08,0,0,0,7.79-3.55q3-2.89,3-5.55C1217.09,65.66,1216.47,64.78,1215.24,64.78Z" fill="#34495e"/><path d="M1264.33,50.87q-3.6,0-7.28,8.8L1252.59,71q-4.23,10.77-8.13,14.16a53.27,53.27,0,0,1,13.08-2.61c.71-.07,1.41-.11,2.09-.11a8.12,8.12,0,0,1,2.19.34,5.86,5.86,0,0,1,2,1,4.88,4.88,0,0,1,1.85,4.08c0,1-.36,1.45-1.07,1.45a2.45,2.45,0,0,1-1.16-.3,13,13,0,0,0-1.27-.56,15.87,15.87,0,0,0-1.66-.51,17.1,17.1,0,0,0-4.41-.57,30.79,30.79,0,0,0-4.37.31c-1.39.21-2.71.43-4,.66l-3.46.67a14.17,14.17,0,0,1-2.4.3,2,2,0,0,1-1.27-.36,4.4,4.4,0,0,1-.81-.93,4,4,0,0,1-.81-2c0-.84.2-1.37.59-1.61q2.31-1.23,5.21-9.58,2.69-7.74,3.67-10.37c.65-1.75,1.37-3.47,2.16-5.14a44.85,44.85,0,0,1,2.56-4.72,21.57,21.57,0,0,1,3-3.84,11,11,0,0,1,7.87-3.54,6.3,6.3,0,0,1,5.1,2.6,8.68,8.68,0,0,1,1.88,5.54,15.51,15.51,0,0,1-3.17,8.83,12.55,12.55,0,0,1-4,3.87,4,4,0,0,1-1.89.56,3.21,3.21,0,0,1-1.49-.33,4.75,4.75,0,0,1-1.13-.82,3,3,0,0,1-1-1.9,1.21,1.21,0,0,1,.43-1.11,21.38,21.38,0,0,0,5.5-4.83,9.5,9.5,0,0,0,2.45-5.87C1266.86,51.81,1266,50.87,1264.33,50.87Z" fill="#34495e"/><path d="M1291.32,81.86c0,1.64.58,2.47,1.75,2.47a4.69,4.69,0,0,0,2-.38,3.17,3.17,0,0,1,1.06-.37c.37,0,.56.19.56.59a4.76,4.76,0,0,1-2.42,4,5.66,5.66,0,0,1-5.21.86,4.35,4.35,0,0,1-2.57-2.66,5.35,5.35,0,0,1-.41-1.91,17.3,17.3,0,0,1,.27-3q-2.49,5.1-6.2,7a6.85,6.85,0,0,1-3.14.75,5.78,5.78,0,0,1-2.89-.69,6.14,6.14,0,0,1-2.08-1.89,10.12,10.12,0,0,1-1.59-6.34,19.94,19.94,0,0,1,2.82-9.37,22,22,0,0,1,6.18-7,12,12,0,0,1,7-2.76,6,6,0,0,1,5.24,3c1.23-2,2.33-3,3.28-3a3.9,3.9,0,0,1,2.31.56c1,.71,1.33,1.34,1,1.88q-6.73,13.8-6.93,17.19C1291.34,81.16,1291.32,81.5,1291.32,81.86Zm-14.9.1c0,2.15.68,3.23,2.06,3.23q1.59,0,3.9-2.69a37.1,37.1,0,0,0,6-10.63,38.76,38.76,0,0,0,1.39-4.19,3.14,3.14,0,0,0-1.53-2.69,2.77,2.77,0,0,0-1.44-.29,4.83,4.83,0,0,0-2.22.69,11,11,0,0,0-2.47,1.91,16.57,16.57,0,0,0-2.23,2.86,22.77,22.77,0,0,0-1.82,3.59A22.15,22.15,0,0,0,1276.42,82Z" fill="#34495e"/><path d="M1300.61,81.37a19.05,19.05,0,0,1,.23-3c.15-1,.35-1.9.59-2.87s.52-1.94.82-2.9l3-9.19A116.9,116.9,0,0,0,1309.74,46c.2-1.51.93-2.26,2.21-2.26a3.07,3.07,0,0,1,1.9.59,3.12,3.12,0,0,1,1.39,2.46,17.4,17.4,0,0,1-.38,2.9c-.22,1.07-.51,2.22-.86,3.48s-.75,2.57-1.2,4c-1.19,3.54-2.09,6.1-2.68,7.68l-1.53,4a27.26,27.26,0,0,1,3.81-5,9.21,9.21,0,0,1,6.15-2.6c3.14,0,5.22,1.63,6.26,4.91a14.84,14.84,0,0,1,.51,4.22,17.5,17.5,0,0,1-.74,5,20.36,20.36,0,0,1-2,4.62,20.07,20.07,0,0,1-2.94,3.86,21.12,21.12,0,0,1-3.53,2.92,14,14,0,0,1-7.6,2.53,7.59,7.59,0,0,1-5.83-2.26A8,8,0,0,1,1300.61,81.37Zm7.52,4.41a7.87,7.87,0,0,0,5.13-2.26,17.37,17.37,0,0,0,5.35-9.83,20.66,20.66,0,0,0,.45-4.36,7,7,0,0,0-.51-3.18,1.68,1.68,0,0,0-1.57-.92,3.75,3.75,0,0,0-2.21.86,17.06,17.06,0,0,0-2.42,2.27,29.08,29.08,0,0,0-2.5,3.25,36.29,36.29,0,0,0-2.23,3.8,17,17,0,0,0-2.17,7.35C1305.45,84.77,1306.34,85.78,1308.13,85.78Z" fill="#34495e"/></g><g style="isolation:isolate"><path d="M441.66,132.67a19.22,19.22,0,0,1,4.69-.1c1.49.39,1.82,1.18,1,2.35a3.15,3.15,0,0,1-1.9,1l-2.15.3c-.45.22-.52.71-.19,1.46a1.84,1.84,0,0,0,1.51.93c2.31-.2,5.34-.26,9.08-.2a3,3,0,0,0,1-.44c1.69-1,3.07-.26,4.15,2.25a3.81,3.81,0,0,1,.73,2.78,2.49,2.49,0,0,1-2,.78l-2-.24a5.06,5.06,0,0,0-4.1.39,1.18,1.18,0,0,0-.44.68,1.48,1.48,0,0,1-1.86,1.13,6,6,0,0,0-1.95-.44,2.51,2.51,0,0,1-1.66-.88c-.07-.2.21-.54.83-1a3.57,3.57,0,0,1,3.81-.14c.58.65,1.23.53,1.95-.34a11.51,11.51,0,0,0,1.22-1.66c.23-1-.39-1.35-1.86-1.13l-7.47.49c-1.2.36-1.56,1.25-1.07,2.69a11.93,11.93,0,0,1-.68,4.54,5.74,5.74,0,0,1-1.22,1.56c-1,.81-1.84.63-2.4-.54a13.07,13.07,0,0,1-.49-5.12c.46-1.7-.11-2.46-1.7-2.3a35.24,35.24,0,0,0-9.77,2.69c-.68.58-1,1.69-.88,3.32s-.76,3.14-2.59,4.24a1,1,0,0,1-.83-.92,16.42,16.42,0,0,1,.74-9.38c.19-1.62.92-1.87,2.19-.73.52.39,1.5.39,2.93,0a83.89,83.89,0,0,1,8.45-1.32q2.25.1,1.56-2a3.66,3.66,0,0,0-1.71-.1c-1.85.88-3.06,0-3.61-2.59.29-1.07,1.25-1.61,2.88-1.61Zm6.4,19c2.08-.65,3.33.06,3.76,2.15q.33,4.2-2.59,9.37-1.86,4.11-5,3.76h-1.42q-2.58-.19-1.8,2.73a3,3,0,0,0,3.41,2,15.88,15.88,0,0,0,7.72-1,3.93,3.93,0,0,0,2.49-2.88c.23-.85.7-.78,1.42.19a2.81,2.81,0,0,0,1.46.83c.81,0,1.25.26,1.32.88a7,7,0,0,0-.93,1.76c.07,1.08-.72,2.08-2.34,3a25.17,25.17,0,0,1-13.33.88c-3.06-1-4.69-2.87-4.89-5.47-.09-2-1.22-2.28-3.36-.68-.75.94-1.5.79-2.25-.44A31.46,31.46,0,0,1,428,156.84a8.26,8.26,0,0,1,.14-2q.35-2.34,2.49-2.1a2.93,2.93,0,0,0,2.45.44,39.61,39.61,0,0,1,13.13-.93A5.2,5.2,0,0,0,448.06,151.62Zm-18.31-2.79a3.24,3.24,0,0,1,3.56.39c1,.92.93,1.71-.24,2.4a18.72,18.72,0,0,0-2.69-.49c-1.24-.36-1.9-.64-2-.83C428.31,149.81,428.77,149.32,429.75,148.83Zm1.36-4.44a4.41,4.41,0,0,1,3.57.54c.71.81.93,1.36.63,1.66-.29.52-.89.71-1.8.58a23.32,23.32,0,0,1-2.88-.58c-1-.3-1.49-.54-1.52-.73A2.5,2.5,0,0,1,431.11,144.39Zm7.38,12.21c.22-.85-.18-1.24-1.22-1.17a9.21,9.21,0,0,0-3.76,1,3.3,3.3,0,0,0-1.22,2.74,11.38,11.38,0,0,0,1.12,5.56c.65.85,1.58,1,2.78.39a1.4,1.4,0,0,0,1.12-1.56c.2-.85,0-1.37-.73-1.56a2.09,2.09,0,0,1-1.85-.78c-.43-1.24.14-2,1.71-2.35C437.83,158.57,438.52,157.8,438.49,156.6Zm8.1-3.27a18.9,18.9,0,0,0-3.27,1.12c-1.56.23-1.94.93-1.12,2.1a1.56,1.56,0,0,0,1.46,1.41,1.26,1.26,0,0,1,.49,1.76c-.16.65-.78,1-1.86,1a1.6,1.6,0,0,0-1.26,1.61c-.3,1,.08,1.56,1.12,1.76a5.88,5.88,0,0,0,4.39-4.3l.69-3.91a3.29,3.29,0,0,0-.15-2.24A.86.86,0,0,0,446.59,153.33Zm-.93-5.52a3.78,3.78,0,0,1,3.52-.59c.39.07.73.41,1,1,.65,1.27.19,1.89-1.37,1.85a16.3,16.3,0,0,1-2.44-.58c-.95-.43-1.44-.7-1.47-.83A2.55,2.55,0,0,1,445.66,147.81Z" fill="#34495e"/><path d="M525.2,136.33c1.59-1.2,2.8-.7,3.61,1.52q.54,11.82.54,27.54.74,3.81-2.78,6.64a3.25,3.25,0,0,1-2,2q-1.12-.39-1.23-2.1a8.44,8.44,0,0,0-1.31-2c-.72-.62-.64-.9.24-.83q2.44.43,2.59-2.59.09-4,0-8c-.1-.42-.44-.45-1-.1a4.59,4.59,0,0,1-2.49,1.37,1.24,1.24,0,0,0-1.66.93,51.3,51.3,0,0,1-3.17,11.38c-.59,1.13-.88,1.07-.88-.2q1.9-17.43,2.64-33.1a4.65,4.65,0,0,1,.44-2,1.2,1.2,0,0,1,1.66-.68,2.16,2.16,0,0,0,2,.58A4.49,4.49,0,0,0,525.2,136.33Zm-2,13.58c-1.7-.78-2.48-.33-2.35,1.37l-.14,2a11.93,11.93,0,0,0-.1,2.19c.55.49,1.45.41,2.68-.24a1.86,1.86,0,0,0,1.52-1.12,23.63,23.63,0,0,0,0-3.37C524.68,150.25,524.13,150,523.25,149.91Zm.88-10.89c-.33-.1-.64,0-.93.44a4.69,4.69,0,0,1-1.17.78c-.69.55-1,1.82-.88,3.81a2.05,2.05,0,0,0,.29,1.76,9.18,9.18,0,0,1,2.83,1.51c.72-.1,1-.63.78-1.61v-5.27C525.18,139.82,524.87,139.35,524.13,139Zm11.47-5.23a1.78,1.78,0,0,1,2.59.79,2.92,2.92,0,0,1-1.32,4.2q-3.07,1.31-4,2.63c.06.88.73,1.65,2,2.3s1.58,1.64.92,2.78a2.13,2.13,0,0,1-2.83.83c-.45,0-1-.57-1.51-1.61q-1.32-2.64,1.51-6.25a4.67,4.67,0,0,0,1.52-3.91C534.69,134.58,535.05,134,535.6,133.79Zm3.17,14.07q2.4-2.45,3.67,1c.16.88-.38,1.52-1.61,1.91-.85.39-1.26.7-1.23.92.23.46,1,.59,2.25.4a17.09,17.09,0,0,1,4.1-.05,3.58,3.58,0,0,0,2.93-.59c2.51-.52,4,.52,4.64,3.13a68.45,68.45,0,0,1,.68,7.71,25.9,25.9,0,0,1-.24,6.74A11.84,11.84,0,0,1,552.3,173a3.75,3.75,0,0,1-2.2,1.9c-1.33.32-2.15-.38-2.44-2.1a4.67,4.67,0,0,0-3.91-1.76,23.07,23.07,0,0,0-6.15.83,4,4,0,0,0-2.05,1.27c-1,.91-1.87.72-2.49-.58a16.35,16.35,0,0,1-.93-3.91q-.48-10.31.25-14.31c.42-1.79,1.32-2.52,2.68-2.19.72.32,1.32-.12,1.81-1.32A21.41,21.41,0,0,1,538.77,147.86Zm9.92,5.52a1.12,1.12,0,0,0-1.71.14,3.4,3.4,0,0,1-2.44.78A24,24,0,0,0,537.7,156a3.2,3.2,0,0,0-1.66,2.74,51,51,0,0,0-.44,8.39,3.6,3.6,0,0,1,.24,1c.07.94.67,1.25,1.81.93a24.47,24.47,0,0,1,8.94-.93,7,7,0,0,0,1.75.59c.69-.33,1-.7,1.08-1.13A56.26,56.26,0,0,0,548.69,153.38Zm-4.69,4c1.14-1.14,2.08-1.3,2.83-.49a2.6,2.6,0,0,1-.54,2.74c-.91.61-1,1.36-.19,2.24,1.11.88,1.51,1.76,1.22,2.64-.85.71-1.89.6-3.13-.34-.91-.82-1.87-.7-2.88.34a8.54,8.54,0,0,1-3.17,2c-.16-.06-.1-.59.19-1.56a10.61,10.61,0,0,0,1.27-2.74c0-.26-.4-.65-1.12-1.17-1.24-.39-1.41-1.09-.54-2.1a2.11,2.11,0,0,1,2.15-.1C541.39,159.53,542.7,159,544,157.38ZM542.14,134q1.86-1.37,3.13.83a2.47,2.47,0,0,1-1.61,3.42q-3.33,1.32-2.35,3.07a2.53,2.53,0,0,0,1,.79c1.63.84,2.1,1.84,1.42,3-.36.62-1.18.87-2.45.74a3,3,0,0,1-1.7-1.47,3.75,3.75,0,0,1,0-3.9,6.49,6.49,0,0,0,1.86-4.89A1.84,1.84,0,0,1,542.14,134Zm8.4-.29q1.71-.58,2.49,1.8c.33,1.44-.45,2.49-2.34,3.18s-2.61,1.51-1.76,2.68a3.54,3.54,0,0,0,1.22.93c1.34.75,1.89,1.63,1.66,2.64-.68,1.3-1.89,1.51-3.61.63a3.79,3.79,0,0,1-1.47-2.83,6.86,6.86,0,0,1,1.52-3.91,4.64,4.64,0,0,0,1-3.46C549.19,134.67,549.63,134.12,550.54,133.7Z" fill="#34495e"/><path d="M617.63,152.2a4.47,4.47,0,0,1,3.32-.92,1.89,1.89,0,0,1,.58,2.73,5.26,5.26,0,0,1-.78,2c-.78,1.37-.7,2.48.25,3.32l1.75,1c.52,1.4,0,2.55-1.56,3.47-.88.48-1.17,1-.88,1.51a28.13,28.13,0,0,1,4.15.93,76.55,76.55,0,0,0,23.59,2.39,26,26,0,0,1,5.51.78c1.11.29,1,.7-.44,1.22a7.11,7.11,0,0,0-3.71,2.54,4.23,4.23,0,0,1-3.41.93,78.38,78.38,0,0,1-19.78-2.79,58.07,58.07,0,0,0-5.86-1.61,3.67,3.67,0,0,0-2.93.15,7.18,7.18,0,0,1-2.54.93c-1,.13-1.61.05-1.9-.25q-1.9-2.58,1.07-3.76l2-.58c.66-.1,1.5-.91,2.54-2.44a2,2,0,0,0,.44-2l-1.17-1.9a14.71,14.71,0,0,1-.49-3.91c-.06-.35-.32-.5-.78-.44a5.41,5.41,0,0,1-2,1,1.78,1.78,0,0,1-1.71-1.66,1.35,1.35,0,0,1,.93-1A17.31,17.31,0,0,0,617.63,152.2Zm-2.35-12.79a3.22,3.22,0,0,1,3.27.24,5.61,5.61,0,0,1,3.08,4c.2,1.43-.52,2.23-2.15,2.39a2.14,2.14,0,0,1-1.61-1,7.33,7.33,0,0,0-2.2-1.86c-1.2-.55-1.82-1-1.85-1.22A3.45,3.45,0,0,1,615.28,139.41Zm12.45-4.93c.52-.52,1.37-.57,2.54-.15q2.94,1.13,3,3.62a1.18,1.18,0,0,0,.54,1.56c1.46,0,2.42.45,2.88,1.27.26,1-.25,1.71-1.51,2.19-1.57,0-2.28.72-2.15,2.06a11,11,0,0,1-.64,2.83c.23.68.73.71,1.52.1q1.85-2.4,3.17,1.12a6.27,6.27,0,0,1,.63,3.71q-.2,2.49,2,1.32a15.07,15.07,0,0,1,2.19-.15,2,2,0,0,0,1.86-.44c0-.65-.5-1.63-1.61-2.93,0-.75.73-1,2.2-.68a3.16,3.16,0,0,0,.88-.44A5.33,5.33,0,0,0,646,148a1.42,1.42,0,0,0,.19-1.71A3.32,3.32,0,0,0,644,147a20.81,20.81,0,0,0-2,1.22,2.77,2.77,0,0,1-1.95.78c-1.44-.49-1.81-1.29-1.13-2.39a8.09,8.09,0,0,1,6.11-1.91,2,2,0,0,0,1.66-1c.68-1.14,1.84-1,3.46.48a2.1,2.1,0,0,1,0,2.89,19,19,0,0,1-3.41,2.09q-2,1.08-.4,2.74a1.68,1.68,0,0,0,2.64,1c1.3-.52,2.69-.19,4.15,1,.62.46.73.93.34,1.42a6.5,6.5,0,0,1-4.54,1.51,1.18,1.18,0,0,0-1.12.73,13.75,13.75,0,0,1-1.07,6.3,5.14,5.14,0,0,1-2.69,2.05q-2.73,2.44-3.86-.39a5.2,5.2,0,0,0-.73-1.41c-.81-.72-.73-1,.24-.79,2.61.14,4.06-1.17,4.35-3.9.45-1.6-.2-2.26-1.95-2l-2.35.39a4.52,4.52,0,0,1-1.46.19,1,1,0,0,0-1.27.15,13.27,13.27,0,0,0-.78,2.15c-1.14,2.73-2.72,4.25-4.74,4.54a6.64,6.64,0,0,1-2.2,1,1.21,1.21,0,0,1-.83-.59,8,8,0,0,0-.39-1.76,2.48,2.48,0,0,0-1.51-1.85c-.16,0-.59.53-1.27,1.51a6.38,6.38,0,0,1-1.37,1c-.32.06-.32-.44,0-1.52l1.08-3.56q2.77-7.51,4.39-12.5a8.66,8.66,0,0,0,.29-1.42c-.42-.36-1.17-.24-2.24.34q-2.1,1.91-3.62-1.66-1.21-2.68,2.89-3,3.08-.19,2.05-3.33C627.75,136.51,627.38,135.49,627.73,134.48Zm5,15a2.43,2.43,0,0,0-2.1,2.2,79.28,79.28,0,0,1-3.41,7.81c-.92,1.59-.18,2.34,2.19,2.24,1.18.3,2.1-.56,2.79-2.58a16.47,16.47,0,0,0,1.75-9.38A.89.89,0,0,0,632.71,149.47Zm8.5-14.55c.62-1,1-1.55,1.22-1.61s.54.13,1,.48c1.17,1.05,1.51,2.09,1,3.13s-.7,1.58-.44,1.71a7.07,7.07,0,0,0,1.81-.64q3.31-1.5,4.88-.83c1.11.53,1.58,1.24,1.42,2.15a5.59,5.59,0,0,1-2.3,1.08A32,32,0,0,0,644,142a3.45,3.45,0,0,1-2,.49c-.91-.39-1.81.14-2.69,1.61a5,5,0,0,1-1.22.83c-.65.23-.89-.15-.73-1.12A40.34,40.34,0,0,1,641.21,134.92Z" fill="#34495e"/><path d="M719.38,133q1.56-2.49,3.71.35c.55,1,.89,1.53,1,1.56a5.4,5.4,0,0,0,2.19-.39,4.13,4.13,0,0,1,2,.05,1.51,1.51,0,0,1,1.27,1.22c-.27,1-1.16,1.63-2.69,1.85a18.51,18.51,0,0,0-4.1,1c-.26.13-.31.47-.15,1,.13.16.69.26,1.66.29a10.78,10.78,0,0,0,3.52-.39c.58-1,1.56-1,2.93,0a3.55,3.55,0,0,1,1.56,3.81,4.48,4.48,0,0,1-1.56.14,4.27,4.27,0,0,0-2.49.69,4,4,0,0,0-.49,1.41,2.11,2.11,0,0,1-1.52,1.57,4.8,4.8,0,0,0-3,1.56c.32.68,1.1.91,2.34.68a4.68,4.68,0,0,1,2.34-.39c.85.42,1,.93.39,1.51a3.89,3.89,0,0,1-1,.93c-1.82.46-3.65.83-5.47,1.12q-1.67-.09-2.1-2.49c-.52-.58-1.24-.58-2.15,0a3.09,3.09,0,0,1-1.46-.14c-1.08-.75-1.68-.31-1.81,1.32q-1.41,7.52-3.56,15.67a17.89,17.89,0,0,1-2.49,5.86c-.79,1.17-1.14,1.19-1.08.05q1.17-8.84,4-23.1a47.15,47.15,0,0,0,.92-7.42.91.91,0,0,1,1.18-.63,4.17,4.17,0,0,0,3.9-.2c1.3-.26,1.84-1.11,1.61-2.54A12.6,12.6,0,0,1,719.38,133ZM723,167.34c1.3-2.15,2.43-3.37,3.37-3.66a1.4,1.4,0,0,1,1.27.88,2,2,0,0,1-1.46,2.34,1.71,1.71,0,0,0-1.37,1.32q.24.34,1.41,0a2.7,2.7,0,0,1,2.69.49c.36,1-.18,1.69-1.61,1.95-2.41.81-4.83,1.56-7.28,2.25a10.3,10.3,0,0,1-4.44,1.27c-1.69.26-2.54-.33-2.54-1.76.39-1.08,1.37-1.68,2.93-1.81q2.06-.2.78-1.71a2.39,2.39,0,0,1-.39-2.68c.42-.26,1-.12,1.71.44a2.31,2.31,0,0,1,1.17,1.85c.1.88.52,1.25,1.27,1.12C721.51,169.63,722.34,168.87,723,167.34Zm-2.88-8.45q5.32-2.14,7.57-1.56c1.46.72,1.58,1.76.34,3.13a13.48,13.48,0,0,1-5.76,3.8,3.52,3.52,0,0,0-1.81,1.13c-.26.84-.89.86-1.9.05a9.08,9.08,0,0,1-1.81-1.86c-1.56-1.53-1.89-3-1-4.39.65-.95,1.44-1,2.39-.1A2.13,2.13,0,0,0,720.11,158.89ZM720,145.07c.43-1.13.13-1.69-.87-1.66a5.06,5.06,0,0,0-2.05,1.08c-1.34.45-1.89,1.17-1.66,2.15.16.23.73.29,1.7.19C718.74,146.77,719.7,146.18,720,145.07Zm2.89,8.74a10.39,10.39,0,0,1,3.66-.43,1,1,0,0,1,.88.83c0,.39-.33.73-1,1a21.87,21.87,0,0,1-6.64,1.42,2.09,2.09,0,0,1-2.34-.78,1.61,1.61,0,0,1,1.51-1.08Zm.48,5.67c-1.82.39-3,1-3.51,1.81.13,1.53.91,2,2.34,1.51a4.22,4.22,0,0,0,3.08-2.69C725,159.3,724.41,159.09,723.33,159.48Zm3.37-18.56-1.9.44a2,2,0,0,0-1.32,1.81c-.36,1-.11,1.45.73,1.42l1.57-.49a1.82,1.82,0,0,0,1.8-1.86c.23-.81.23-1.27,0-1.36A2.82,2.82,0,0,0,726.7,140.92Zm6.45-7c.58-2,1.58-2.54,3-1.46a3.62,3.62,0,0,1,1.17,3.46q.24,3.42.63,6.84a1.12,1.12,0,0,0,1.08,1.42,11.14,11.14,0,0,0,2-.54,2.29,2.29,0,0,1,2.88.54q1,1.56-1.27,3.9a7.35,7.35,0,0,1-2,1.17q-2.49,1-1.42,3.42a15.33,15.33,0,0,0,.44,2c.07.87.34,1.31.83,1.31a3.2,3.2,0,0,0,1-.83,16.16,16.16,0,0,1,1.17-2.14,4.24,4.24,0,0,1,1.46-1.66c1.14-.3,1.91.26,2.3,1.66q0,2.53-4.39,7.81-.64,1.37.92,3.9a31.58,31.58,0,0,0,2.44,3.72c1.05,1.72,1.89,1.7,2.54-.05a7.49,7.49,0,0,1,.83-2c.56-1,.8-1,.74-.05a15.67,15.67,0,0,0,.19,6.3q1.08,1.51-.93,2.1a7.32,7.32,0,0,0-2.34.34,2.38,2.38,0,0,1-1.95-.78,24.7,24.7,0,0,1-5.33-8.05q-.58-2.64-3.07,0a12.41,12.41,0,0,1-5.62,2.63c-.09-.09.17-.63.78-1.61a40,40,0,0,1,4.4-5.37,2.91,2.91,0,0,0,.83-3.91c-.52-1.92-1-3.85-1.42-5.81a2.87,2.87,0,0,0-1.9-.58,3.57,3.57,0,0,1-2-1.17q-2.6-2.49,1.66-3.81c.91-.23,1.36-.72,1.36-1.47Q733.59,139.51,733.15,133.89Zm9.18,3.47a3.62,3.62,0,0,1,3.07.24,2.89,2.89,0,0,1,1.81,2.3,2.11,2.11,0,0,1-.49,1.9c-1.43.56-2.72,0-3.85-1.66C742,139,741.77,138.08,742.33,137.36Z" fill="#34495e"/><path d="M821.57,133.45q1.08-2.92,3-.53c.58,1.2,1.32,1.51,2.2.92a3.21,3.21,0,0,1,2.44.2c1.72,1.07,1.71,2.23-.05,3.47a37.51,37.51,0,0,1-3.66,1.9,1.63,1.63,0,0,0-1.37,1.51,1.84,1.84,0,0,0,2.68,1.27,1.91,1.91,0,0,1,3,1.08,67.19,67.19,0,0,1-.93,12.74q-.43,2.15,1.71,1.56A4.21,4.21,0,0,0,833,157a6.36,6.36,0,0,0,.88-2.69,3,3,0,0,0,0-1.41,4.85,4.85,0,0,0-1.71-.1,1.43,1.43,0,0,1-1.17-.64c-.84-1.07-.52-2,1-2.83a5.08,5.08,0,0,1,2-.29,1.77,1.77,0,0,0,1.52-2.44c-.23-.36-.83-.39-1.81-.1a2.14,2.14,0,0,1-2.34-.88q-.84-2.25,2.24-3.07a17,17,0,0,1,2.25.14,1.54,1.54,0,0,0,.93-2.05c.06-1.2-.39-1.61-1.37-1.22a6.11,6.11,0,0,1-1.95.49q-1.91.09-1.86-2c.16-1.34,1.25-1.89,3.27-1.66a2.75,2.75,0,0,0,3.08-1c1-.2,1.77.32,2.39,1.56.39.82.46,2.48.2,5a50.6,50.6,0,0,1-3.42,14.41.75.75,0,0,0,.19.48,4,4,0,0,0,1.76.15l1.76-.1a4.31,4.31,0,0,1,5.08,2.64,2.12,2.12,0,0,1-.64,3,21.2,21.2,0,0,1-4-.1,78.75,78.75,0,0,0-19.39,1.37,1.94,1.94,0,0,0-1,.58q-3.13,3.62-6.06,7.38a25.36,25.36,0,0,1-2.39,2.19c-1.24.95-1.73.9-1.47-.14a39.79,39.79,0,0,1,3.47-7.38c0-.29-.15-.43-.54-.43a5.45,5.45,0,0,0-1.41.48,13.13,13.13,0,0,1-3.91,1.08,2.76,2.76,0,0,1-2.93-.93c-1.56-1.72-1.22-3.26,1-4.59a33.61,33.61,0,0,1,6.1-1.66c.46-.33.52-.89.2-1.71A55,55,0,0,1,810.34,140a4,4,0,0,1,1-2.49c.78-.58,1.38-.78,1.8-.58a4.15,4.15,0,0,0,2.74-.64q2.54-1,2.54,1.62a2.45,2.45,0,0,1-1.57,2.14l-1.66.59c-.45.29-.63,1-.53,2.1,0,1.43.52,1.9,1.66,1.42a2.7,2.7,0,0,1,2.29.34q1.56,1-.15,2.78a5.7,5.7,0,0,1-1.46.73c-1.53.17-2.08.91-1.66,2.25.29.55.67.73,1.12.54a3.2,3.2,0,0,1,2.93,0c1.08.66,1.71.33,1.91-1a3.9,3.9,0,0,1,1.75-2.39c1.27.22,1.58,1.1.93,2.63a38.84,38.84,0,0,0-.63,7.67c.55.85,1.36.85,2.44,0a4.4,4.4,0,0,0,.39-2.1q.39-5,.39-9.47a3.75,3.75,0,0,0-.34-1.62,1.74,1.74,0,0,0-.64.05,9.53,9.53,0,0,1-3.46,1.47c-.46.23-.92.06-1.37-.49s-.52-1.42-.29-2.78c0-2.28,0-4.58.14-6.89A10.44,10.44,0,0,1,821.57,133.45Zm-1.22,20.41a13.35,13.35,0,0,1-2.25.3c-1.59.09-2.13.86-1.61,2.29l.25,1.61c0,1.17.73,1.57,2.19,1.17a1.49,1.49,0,0,0,1.76-1.17v-2.54A4.25,4.25,0,0,0,820.35,153.86ZM833.19,165a2.45,2.45,0,0,1,2.39-.44,8,8,0,0,1,3.91,2.34,7.7,7.7,0,0,1,2.34,6.35q-1.76,4-4.83,1.27a6.47,6.47,0,0,1-.88-1.95,8.76,8.76,0,0,0-2.49-3.91Q831.73,166.47,833.19,165Z" fill="#34495e"/><path d="M907.06,134.53q2.79-4.2,4.64-.54c.2,1.73,1,2.21,2.54,1.47a9.3,9.3,0,0,1,5.23-.3q2,2.06-.93,3.57a13.64,13.64,0,0,0-2,.34c-1.46.19-2,.86-1.46,2-.07.94.33,1.43,1.17,1.47a21.59,21.59,0,0,1,2.93-.49,2.07,2.07,0,0,1,2.3,2,2.67,2.67,0,0,1-2.1,2.05,19,19,0,0,1-3.91.88c-1.33-.2-2.28.71-2.83,2.73a12.67,12.67,0,0,1-7.57,6.4c-1.14.49-1.35.16-.63-1a23.66,23.66,0,0,1,1.75-2,9.47,9.47,0,0,0,2.84-4.44c0-.4-.57-.62-1.62-.69a8.07,8.07,0,0,1-3.8.15c-1.08-.78-1.62-1.55-1.62-2.3,0-1.17.79-1.8,2.25-1.9a28.07,28.07,0,0,0,4.44-.29,1.69,1.69,0,0,0,1.76-1.08,4,4,0,0,0,.34-2.2,1.14,1.14,0,0,0-1.22-.34l-1.46-.24a13.72,13.72,0,0,0-2.93,1.95c-1.17.49-1.76.62-1.76.39A18.68,18.68,0,0,1,907.06,134.53Zm17.48,20.26q2.06-1.8,4,1.27a19.6,19.6,0,0,1,1.66,8.2,17.85,17.85,0,0,1-.49,5.77q-2.19,4.68-6.35,5.51a1.09,1.09,0,0,1-.73-1.07c-.55-2.12-1.89-2.85-4-2.2a5.33,5.33,0,0,0-3.18,1c-.75.65-1.27.93-1.56.83q-1.36-.93-2-3.81a23.62,23.62,0,0,1-.3-8.64,9.83,9.83,0,0,1,2.06-6.55c.22-.06.53.07.92.39a2.27,2.27,0,0,0,2.15.54c1.95-.23,3.91-.39,5.86-.49A2.17,2.17,0,0,0,924.54,154.79Zm-9.62-5.22c1-1.27,2.61-1.31,4.89-.1q2.34,1.56,1.17,3.71a1.57,1.57,0,0,1-1.27.88c-.65.1-1.35-.33-2.1-1.27a10.45,10.45,0,0,0-2-1.42A1.29,1.29,0,0,1,914.92,149.57Zm7.67,8a15.31,15.31,0,0,0-6,2.05,1.82,1.82,0,0,0-1.27,1.71,1.3,1.3,0,0,0,.64,1.61,38.64,38.64,0,0,1,4-.88c1.6-.1,2.61.26,3,1.07a2.77,2.77,0,0,1-2.83,2.39c-1.31.1-2.61.25-3.91.44a1.63,1.63,0,0,0-.83.25,2.54,2.54,0,0,0-.24,2.1c.26,1.14,1.1,1.45,2.54.93a36.13,36.13,0,0,1,5.61-.35c1.5.17,2.08-.44,1.76-1.8v-7C925.15,157.8,924.28,157,922.59,157.53ZM924,136.48c.65-.88,1.32-1,2-.44.62,1.24,1.38,1.76,2.29,1.56l4.89-1.12a4.4,4.4,0,0,1,2.63-.29,3.07,3.07,0,0,1,2,1.71,2.69,2.69,0,0,1-.49,3.85,4.33,4.33,0,0,0-.68,4.11,1.15,1.15,0,0,1-.2,1.12,28.4,28.4,0,0,1-5.71,2.59,3.74,3.74,0,0,0-2.93,1.8,2.18,2.18,0,0,1-2.59-1A23.72,23.72,0,0,1,923,140.29C923,138.43,923.31,137.16,924,136.48Zm8.2,3.86a5.71,5.71,0,0,0-3.27.83q-2.68,1.07-1.66,4a1.3,1.3,0,0,0,1,1.27c2.22.07,3.73-1.35,4.55-4.25A1.32,1.32,0,0,0,932.16,140.34Z" fill="#34495e"/><path d="M1023.61,133.89c.36-1.79,1.25-2.13,2.69-1a1.74,1.74,0,0,0,2.58,1.07,8.52,8.52,0,0,1,2.74-.05c.49.26.71.54.68.83,0,.52-.39.91-1.27,1.17a21.89,21.89,0,0,1-2.88.79c-1.63.13-2.21.84-1.76,2.14.13.14.69.18,1.66.15a7.87,7.87,0,0,1,2.3-.15,1.1,1.1,0,0,1,.68,1.32,3.14,3.14,0,0,1-2.2.78l-1.95.39a1.37,1.37,0,0,0-1,1.81c.26.59.79.8,1.61.64a16.56,16.56,0,0,1,3.9-.3c.69.17,1,.52.93,1.08s-.26,1-1,1.27q-2.44.48-4.89.78c-1.3.58-1.74,1.45-1.32,2.59a4.68,4.68,0,0,1,1.13,2.93c.26.91.79,1.25,1.61,1,1.82-.13,3.64-.19,5.47-.19a2.77,2.77,0,0,1,2.59,2.58,1.42,1.42,0,0,1-.3,1c-.26.23-1,.29-2.15.19l-6.54-.09a2.63,2.63,0,0,0-2.39,1.41,11.45,11.45,0,0,1-2.3,3.42,1.3,1.3,0,0,1-1.46.24c-.69-.22-1.95,0-3.81.54-.23.2-.18.6.15,1.22.45,1,1.12,1.32,2,.93.29-.2.34.2.14,1.17a4,4,0,0,1-.14,1.08c.06,1.79-.65,2.34-2.15,1.66-1.89-.72-2.91-2.28-3.08-4.69a.88.88,0,0,0-1.22-.73,15.9,15.9,0,0,1-5.12.73c-1.31-.29-1.63-1-1-2.2a2.82,2.82,0,0,1,2.15-.83c3.25-.39,6.51-.84,9.76-1.37a2,2,0,0,0,1.91-1.41c.1-.33,0-.59-.44-.78a60,60,0,0,0-15.43,2.44q-4.31,1.36-5.86.83c-1.14-.81-1.48-1.56-1-2.25a3.5,3.5,0,0,1,2.4-1.41q9.18-1.67,20.5-2.88c1.34,0,1.84-.64,1.52-1.81a1.11,1.11,0,0,0-1.08-.68q-3.62.28-11.72,1.56a2.15,2.15,0,0,1-2.58-1.32c-.13-.55.19-.91,1-1.07,1.11-.33,1.44-.92,1-1.76a1.4,1.4,0,0,0-1.17-.69,25.73,25.73,0,0,0-4.45.88,1.64,1.64,0,0,1-1.36-.83,1.15,1.15,0,0,1-.3-1.61c.92-.81,2.62-1.22,5.13-1.22a1.49,1.49,0,0,0,1.71-1.22c0-.91-.57-1.22-1.61-.93-1.69.49-2.91.47-3.66,0-.33-1.2.19-1.87,1.56-2a14.75,14.75,0,0,1,1.95-.34c1.5-.16,2-.76,1.42-1.81a3.55,3.55,0,0,0-1.71-.05,7.19,7.19,0,0,1-3.61.15c-.78-.81-.77-1.5.05-2.05a5.43,5.43,0,0,1,2.53-.63l2-.3a1.77,1.77,0,0,0,1.66-1.32,2.34,2.34,0,0,1,1.41-1.8,1.51,1.51,0,0,1,1.42,1.17,2,2,0,0,0,2.1.68,2.58,2.58,0,0,1,2.05.44c.36.88.06,1.45-.88,1.71a7.31,7.31,0,0,0-1.46.25,4.36,4.36,0,0,0-2,.58,1.13,1.13,0,0,0-.39,1.17c.26.59.93.74,2,.44a4.75,4.75,0,0,1,1.47.15q.88.19.39,1.17a2.51,2.51,0,0,1-1.17.59l-2,.53a1.19,1.19,0,0,0-.93,1.27q.2,1.9,2.73.69l.64-.2c1.1-.26,1.2.25.29,1.52a6.82,6.82,0,0,1-2.83,2.1,1.65,1.65,0,0,0-.49.92l-.2,1.22c.17.2.74.28,1.71.25a28.81,28.81,0,0,1,9.72.24,1.27,1.27,0,0,0,.34-1.9c-.32-.36-.89-.44-1.71-.25l-1.61.2a3.89,3.89,0,0,1-2.1-.39c-.88-1.27-.37-2.09,1.52-2.44a14.45,14.45,0,0,1,1.95-.25c1.2.17,1.76-.39,1.66-1.66-.26-.49-.83-.65-1.71-.49a2.55,2.55,0,0,1-1.76-.29c-.49-.58-.39-1.17.29-1.76a5,5,0,0,1,2.3-.44c1.14-.22,1.51-.78,1.12-1.66a1.55,1.55,0,0,0-1.71-.19,3.07,3.07,0,0,1-2.14-.29c-.85-1-.59-1.75.78-2.3l3.12-.54A1.84,1.84,0,0,0,1023.61,133.89Zm-24,38.53q-2.69-4,1.9-7.86a1.47,1.47,0,0,1,.59.24c.26.23.24.93-.05,2.1-.16,1.43-.28,2.91-.34,4.44a2.57,2.57,0,0,1-.69,2.49Q1000.76,173.83,999.59,172.42Zm7.61-5.32a2.13,2.13,0,0,1,1.08-2.1c.23,0,.65.44,1.27,1.31a11,11,0,0,0,3.42,3.52,23.72,23.72,0,0,0,11.71,1.22,1.7,1.7,0,0,0,1.71-.63,2.34,2.34,0,0,0-.88-2.15q-1-1.71.54-.93a12,12,0,0,0,5.18,1.12c.71.2.86.6.44,1.22a8.1,8.1,0,0,0-.15,2,2.06,2.06,0,0,1-1.07,1.8,13.44,13.44,0,0,1-7.82,2.35,24.16,24.16,0,0,1-11.71-3.08A8,8,0,0,1,1007.2,167.1Zm21.44-7.13a6.8,6.8,0,0,1,5.71,2.93,2.51,2.51,0,0,1-.44,3.61q-.59.35-2.1-.24a15.74,15.74,0,0,1-4.59-3.67Q1025.76,160.41,1028.64,160Z" fill="#34495e"/><path d="M1109.74,132.28c.23-.94.86-1.3,1.9-1.07a9.57,9.57,0,0,1,3.47,1.17,3.06,3.06,0,0,1,.54.78c.13.52.4.78.83.78,1.85-.06,3.76-.08,5.71-.05a6.28,6.28,0,0,0,4.2-.83,1.14,1.14,0,0,1,1.37.3,7.08,7.08,0,0,1,2.34,4.68q-.88,1.28-4,.39a2,2,0,0,0-2,.15c-1.1,1-1.41,1.06-.92.24a6.36,6.36,0,0,0,1.46-2.83c-.23-.52-.89-.7-2-.53q-3.57,0-7.18.43a12.11,12.11,0,0,0-1.9,1.42,1.77,1.77,0,0,1-1.61.15,1.07,1.07,0,0,1-.69-.54,1.56,1.56,0,0,0-1.8-.59,44.58,44.58,0,0,0-5.86,1q-2.7.39-2.2,2.93a6.69,6.69,0,0,1-1.86,3.32c0,.36.51.52,1.61.49l1.62-.2a3.78,3.78,0,0,0,2.93-1.27,21,21,0,0,1,2.88-3.9q1.07-1.28,2-.54a2.79,2.79,0,0,0,2,.59,10.25,10.25,0,0,0,6.94-1,2.67,2.67,0,0,1,1.46,2.39,4.77,4.77,0,0,0,.1,1.27,3.13,3.13,0,0,0,1.76.34q3.86-.28,7.71-.44c1.47.17,2.1.93,1.91,2.3a1.23,1.23,0,0,1-1.08.83q-4.93-.3-9.91-.39a2.54,2.54,0,0,0-2.25.63c-.52.78-.06,1.31,1.37,1.57q1.95,1.56-1.12,2.58-5.86.58-11.72,1.32a15.88,15.88,0,0,1-2.49.2c-2.05-.07-2.67-1.17-1.86-3.32-.13-.85-1.09-.91-2.88-.2a19.83,19.83,0,0,0-3.9,1.52,4.74,4.74,0,0,1-3.28,0c-.48-.06-.84-.52-1.07-1.36q0-1.32,2.64-1.86a21.94,21.94,0,0,1,2.34-.54c.36-.25.39-.78.1-1.56a11.35,11.35,0,0,1,.73-7.81c.55-.94,1-1.42,1.27-1.42a4.85,4.85,0,0,1,1.07.64,2.36,2.36,0,0,0,2,.63c2.28-.29,4.55-.53,6.83-.73a6.17,6.17,0,0,0,1.22-.19C1110.58,133.73,1110.39,133.1,1109.74,132.28Zm6.69,18.41a2.31,2.31,0,0,1,2.63.49,6,6,0,0,1,2.35,3.71,59.21,59.21,0,0,1,.58,8.93,3.24,3.24,0,0,1-1.85,2.69c-1,.52-1.29,1.12-.83,1.81l1.81,1.22c2,1.33,3.07,2.49,3.17,3.46-.1,1.83-1,2.69-2.64,2.59-.62,0-1.23-.45-1.85-1.37a20.58,20.58,0,0,0-3.23-3.9c-1.46-1-1.75-1.87-.87-2.69.55-.42.45-.83-.3-1.22a15.72,15.72,0,0,0-4.49.44,9.58,9.58,0,0,0-2.93.73.69.69,0,0,0-.15.59c.39.62,0,1.38-1.12,2.29a32.23,32.23,0,0,0-4.34,3.91c-1.66,1.47-2,1.17-1.08-.88a12.52,12.52,0,0,1,2.49-3.9,1.78,1.78,0,0,0,.88-1.52,16.36,16.36,0,0,1-.88-2.39,24.71,24.71,0,0,1,.64-11.91,4.17,4.17,0,0,1,3.71-2.64,8.38,8.38,0,0,0,1.12.54l5.08-.3A5.76,5.76,0,0,0,1116.43,150.69Zm-8.74-5.37c-1.53.1-1.94.72-1.22,1.85,1.75.39,2.94.33,3.56-.19a2.3,2.3,0,0,0,.64-1.42c-.07-.29-.51-.45-1.32-.49A10.4,10.4,0,0,0,1107.69,145.32Zm6.64,7.32a42.12,42.12,0,0,0-4.88.93c-1.47.23-2,1-1.62,2.3a1.86,1.86,0,0,0,1.81-.2,5.2,5.2,0,0,1,4-.1c.42.1.45.47.09,1.13a9.25,9.25,0,0,1-4.54,1.46,1.58,1.58,0,0,0-1.9,1.32q-.2.63.78.93a13.48,13.48,0,0,1,4.25-.64c1.14.16,1.56.6,1.27,1.32a7.2,7.2,0,0,1-3.76,1.46,2,2,0,0,0-2.3,1.08c.07,1.11.59,1.51,1.56,1.22a21.31,21.31,0,0,0,6.84-1.71,2.83,2.83,0,0,0,.68-2.39l0-5.62a3.07,3.07,0,0,0-.54-2.24A1.72,1.72,0,0,0,1114.33,152.64Zm-2.25-11.23c-.42-1.14-1.24-1-2.44.34-.72.75-.63,1.18.24,1.27A1.7,1.7,0,0,0,1112.08,141.41Zm4.35,3a3,3,0,0,0-4,2.1c.2.65,1,.78,2.4.39a2.43,2.43,0,0,0,1.8-1.51C1116.9,145,1116.82,144.72,1116.43,144.39Zm1.17-5a5.81,5.81,0,0,0-2.34.83c-1,1.14-.79,1.84.58,2.1a2,2,0,0,0,2.39-1.76A.85.85,0,0,0,1117.6,139.41Z" fill="#34495e"/><path d="M1188.25,162.6c.71-.45,1.37-.11,2,1a6.52,6.52,0,0,1,1.71,3.91c-.2,1.59-.91,2-2.15,1.12a5.11,5.11,0,0,1-1.51-2.93,3,3,0,0,0-.54-1C1187.29,164.1,1187.47,163.38,1188.25,162.6ZM1193,135c1-1.37,1.91-1.23,2.69.44q.43,1.46,2.25.78l3.32-1c1.49-.49,2.54-.59,3.12-.29a1.33,1.33,0,0,1,.39,1c-.19,1.53-1.22,2.61-3.07,3.23-1.24,1.46-.92,2.28,1,2.44,1.14.32,1.24,1.17.3,2.54-1.5.84-2.22,1.69-2.15,2.54s.58,1.38,1.36,1.22a2,2,0,0,1,1.42,1.27c0,.68-.52,1.23-1.66,1.66s-1.63,1.56-1.27,3.32q-.2,2.39,2.2,1.27c.88-.65,1.71-.33,2.49,1,.75,1.76.79,4.64.14,8.64a11.4,11.4,0,0,1-3.66,7.77q-2.73,2-4,1.81c-.81-.23-1.17-.9-1.07-2l-.3-1.12c-.55-1.07-.39-1.5.49-1.27q2.2.5,4-1.76a19.14,19.14,0,0,0,2-10.2q-.25-2.64-3-1A15.84,15.84,0,0,0,1196,159q-3.7,2.1-4.83,0a1.2,1.2,0,0,1,.54-1,1.46,1.46,0,0,0,.58-1.61,121.48,121.48,0,0,1-.63-15.52A26.84,26.84,0,0,1,1193,135Zm-.53,27.29q.78-.54,2,1.32a2.58,2.58,0,0,1-.59,3.08c-.13,0-.47-.53-1-1.57l-.78-1.71A1,1,0,0,1,1192.45,162.31Zm5.51-15.62a4.62,4.62,0,0,0-1.41-.49c-1.21-1.08-1.89-.83-2,.73a18,18,0,0,0,0,2.39c.55.72,1.43.67,2.63-.14A1.62,1.62,0,0,0,1198,146.69Zm-1.26,5.76q-2.45-1.27-2.15,1.22a4.53,4.53,0,0,0,.34,2.29q.43.64,1.71.15a1.41,1.41,0,0,0,1.51-.83,4,4,0,0,0-.19-2.44A1.08,1.08,0,0,0,1196.7,152.45Zm.39-12.84a.9.9,0,0,0-1.32-.2,17.92,17.92,0,0,0-.59,2.54c0,.78,0,1.25.2,1.42a1.59,1.59,0,0,0,1.22-.3q2.49-.39,1.66-2.88A3,3,0,0,0,1197.09,139.61Zm-1.47,21.63c.33-.43.65-.52,1-.3,1.4,1.5,1.62,2.8.68,3.91-.52.52-1,.19-1.37-1A3.31,3.31,0,0,1,1195.62,161.24Zm3.08-.83c.13-.78.53-1,1.22-.59a3.14,3.14,0,0,1,1.56,2.25,1.55,1.55,0,0,1-1.42,1.71c-.16-.07-.42-.59-.78-1.57A8.79,8.79,0,0,1,1198.7,160.41Zm15.09-25.69q2-3.16,3.41.34a3.92,3.92,0,0,0,1.71,1.66,33.39,33.39,0,0,1,3.52,2.84,26.2,26.2,0,0,0,5.27,4.54,20,20,0,0,1,3,2.44c.88.88.81,1.29-.2,1.22a11.7,11.7,0,0,0-2.83.15q-2.34,1.41-3.91-.1a49.55,49.55,0,0,1-4.78-5.76,7.08,7.08,0,0,0-3.42-2.74,1.74,1.74,0,0,0-1.8.93l-1.27,2.1a4.17,4.17,0,0,0-.74,1.56c.26.36,1,.39,2.15.1a23,23,0,0,1,2.93-.49,1.26,1.26,0,0,1,1.81.54c.62.85.4,1.82-.64,2.93q-3.51,3.42-6.83.83c-1-1.37-2-1.29-2.74.24a9.78,9.78,0,0,1-3,2.79q-.24,0,.15-1.47A55,55,0,0,1,1213.79,134.72ZM1210.71,152q2.1-1.41,4,.73a1.72,1.72,0,0,1,.1,1.95,10.39,10.39,0,0,0-.64,5.08,13.27,13.27,0,0,1-3.51,1.47c-.78.45-1.19.76-1.22.93s-.15.37-.44.53a.73.73,0,0,1-.68-.1,3.52,3.52,0,0,1-.64-1.26,17.06,17.06,0,0,1-1-8.11,3.34,3.34,0,0,1,.39-1q.54-1.06,1.32-.39A2.24,2.24,0,0,0,1210.71,152Zm.54,11.33c.81-1.11,1.43-1.22,1.85-.34a1.42,1.42,0,0,1,0,.78,1.88,1.88,0,0,0,.59,2.88,3.6,3.6,0,0,1,1.27,2.88,1,1,0,0,1-.54,1.07c-.91.2-1.76-.26-2.54-1.36q-1.17-2.16-2.49.24a17.11,17.11,0,0,1-2.64,3.47c-.13,0-.09-.44.1-1.42A16.41,16.41,0,0,1,1211.25,163.29Zm.48-8.55a.48.48,0,0,0-.53-.39c-1.6.46-2.27,1.39-2,2.78-.17,1.57.39,2.09,1.66,1.57a2.23,2.23,0,0,0,.68-2.25Zm10.26,6.55c.32-.2.65-.12,1,.24a2.23,2.23,0,0,1-.19,3.12l-5.18,6.84a8.28,8.28,0,0,1-1.27,1.42c-.42.22-.55-.12-.39-1A19.11,19.11,0,0,1,1222,161.29Zm-4.79-10.5c.52-.82,1-1,1.42-.49a3.34,3.34,0,0,0,2.15.39,10.42,10.42,0,0,1,3.37-.49,4.39,4.39,0,0,1,1.85,1.27,2.25,2.25,0,0,1-.1,2.93,7,7,0,0,0-.78,3.13,2.55,2.55,0,0,1,0,1.46,25.6,25.6,0,0,1-4.2,1.37,1.42,1.42,0,0,0-1.36,1,.61.61,0,0,1-.78.59,1.53,1.53,0,0,1-1-1.07Q1215.84,154.55,1217.2,150.79Zm4.3,2.68q-2.73.78-2.1,2.79c-.19,1.3.2,2,1.17,2.14,1.24-.45,1.84-1.54,1.81-3.27a3.67,3.67,0,0,0-.2-1.46A.55.55,0,0,0,1221.5,153.47Zm1.12,13.77c1.08-1,2.23-.84,3.47.49q2.15,2.53.59,4.88c-.85.88-1.36,1.31-1.52,1.27a18.68,18.68,0,0,1-2.63-4.15A2.14,2.14,0,0,1,1222.62,167.24Z" fill="#34495e"/><path d="M1301.08,132.48q.45-1,2.1-.54a6.53,6.53,0,0,1,4.2,3.22,1.85,1.85,0,0,0,2,.59c1.4-.1,4-.13,7.76-.1a2.81,2.81,0,0,0,1-.29,6,6,0,0,1,1.51-.64,4.48,4.48,0,0,1,2.3,1.81q2,2.73,1.61,4.1a3.22,3.22,0,0,1-3.62.88l-2-.39a7.74,7.74,0,0,0-3.81,1.17c-.32.1,0-.32,1-1.27a17.28,17.28,0,0,0,1.61-2c.32-.26.34-.64,0-1.12a2.51,2.51,0,0,0-1.81-.2c-2,.1-3.91.24-5.86.44-1.07-.13-2,.46-2.64,1.76a2.72,2.72,0,0,1-2.78,1.51c-.75-.16-1.09-.58-1-1.27.06-1-.44-1.43-1.52-1.17a28.18,28.18,0,0,0-7.81,2.25c-1.63.22-2.26,1.3-1.9,3.22.35,1.5-.31,2.94-2,4.34q-1.65,1.28-2.1-1.17a29.55,29.55,0,0,1,1.13-10.45c.42-1,.71-1.46.88-1.46a4.25,4.25,0,0,1,1.71,1.12q1.07,1.13,2,.93a70.1,70.1,0,0,1,7.81-1.27c1.24-.2,1.45-.78.64-1.76A2.57,2.57,0,0,1,1301.08,132.48Zm7.48,9.66c1-.19,2.14.46,3.32,2q1.26,2-1.32,2.73l-2,.69a4.58,4.58,0,0,0-1.95,1q-2,1.23-3.9,2.59a3.9,3.9,0,0,0-1.52,2.15q.19.78,1.56.39l3.91-.64a11.41,11.41,0,0,0,2.2-.44c.45-.22.53-.78.24-1.66a1.8,1.8,0,0,1-.1-1.17c.33-.88,1.13-1.15,2.4-.83a5.84,5.84,0,0,1,3.22,3.18,6,6,0,0,1,.59,3.9c-1.11,2.09-2.4,2.15-3.86.2-.23-.69-.64-1-1.22-.83a27.3,27.3,0,0,0-3.71,1.12c-.33.2-.38.54-.15,1a2.48,2.48,0,0,1,0,2.1c0,1.17.78,1.49,2.24,1q2.6-.83,3.86.54c.82.91.73,1.89-.24,2.93a6.46,6.46,0,0,1-3.91,1.37c-1.72,0-2.33,1-1.81,2.83a1.12,1.12,0,0,0,.74,1,21.33,21.33,0,0,0,3.71,0c1.23-.1,2.47-.15,3.71-.15a4,4,0,0,1,3.91.93c1.33,1.33,1.57,2.54.73,3.61-1,.75-2.39,1-4.35.68a20.71,20.71,0,0,0-5.22-.34q-10,.39-16.56,1.22a2.63,2.63,0,0,1-2.78-1.22,2.27,2.27,0,0,1,0-2.1,6.35,6.35,0,0,1,3.71-1.51l6.84-.59c1-.13,1.43-.58,1.27-1.36,0-1.76-.92-2.35-2.74-1.76l-1,.15c-1.47.35-2.61-.26-3.42-1.86-.56-.65-.46-1.42.29-2.3a2.72,2.72,0,0,1,1.71-.43l2.93-.3a5.31,5.31,0,0,0,1.27-.29c.59-.62.73-1.74.44-3.37-.23-.42-.77-.5-1.61-.24a22.5,22.5,0,0,1-4,.68,2.48,2.48,0,0,1-1.71-2.44,2.85,2.85,0,0,1,2-1.91,10.67,10.67,0,0,0,2.78-3.9q.15-.69-.69-1.17a7,7,0,0,1-2.39-3.81c-.19-.78.2-1.24,1.17-1.37A57.83,57.83,0,0,0,1308.56,142.14Z" fill="#34495e"/></g></svg>